<?xml version="1.0" encoding="UTF-8"?>
<svg id="Layer_1" xmlns="http://www.w3.org/2000/svg" version="1.1" viewBox="0 0 24 24">
  <!-- Generator: Adobe Illustrator 29.4.0, SVG Export Plug-In . SVG Version: 2.1.0 Build 152)  -->
  <defs>
    <style>
      .st0 {
        fill: #fff;
      }

      .st1 {
        fill: #dedede;
      }

      .st2 {
        fill: none;
        fill-rule: evenodd;
        stroke: #dedede;
        stroke-linecap: round;
        stroke-linejoin: round;
        stroke-width: 2.4px;
      }
    </style>
  </defs>
  <g>
    <path class="st0" d="M3.6,1.2h16.8c1.3,0,2.4,1.1,2.4,2.4v16.8c0,1.3-1.1,2.4-2.4,2.4H3.6c-1.3,0-2.4-1.1-2.4-2.4V3.6c0-1.3,1.1-2.4,2.4-2.4Z"/>
    <path class="st1" d="M20.4,2.4c.7,0,1.2.5,1.2,1.2v16.8c0,.7-.5,1.2-1.2,1.2H3.6c-.7,0-1.2-.5-1.2-1.2V3.6c0-.7.5-1.2,1.2-1.2h16.8M20.4,0H3.6C1.6,0,0,1.6,0,3.6v16.8c0,2,1.6,3.6,3.6,3.6h16.8c2,0,3.6-1.6,3.6-3.6V3.6c0-2-1.6-3.6-3.6-3.6h0Z"/>
  </g>
  <polyline class="st2" points="7.2 12 10.4 15.6 16.8 8.4"/>
</svg>