<?xml version="1.0" encoding="utf-8"?>
<!-- Generator: Adobe Illustrator 16.0.0, SVG Export Plug-In . SVG Version: 6.00 Build 0)  -->
<!DOCTYPE svg PUBLIC "-//W3C//DTD SVG 1.1//EN" "http://www.w3.org/Graphics/SVG/1.1/DTD/svg11.dtd">
<svg version="1.1" id="Layer_1" xmlns="http://www.w3.org/2000/svg" xmlns:xlink="http://www.w3.org/1999/xlink" x="0px" y="0px"
	 width="12px" height="12px" viewBox="0 0 12 12" enable-background="new 0 0 12 12" xml:space="preserve">
<g>
	<g>
		<path fill="#FFFFFF" d="M11.809,2.548l-0.394-0.393c-0.124-0.124-0.288-0.192-0.464-0.192s-0.341,0.068-0.465,0.192L4.963,7.678
			l-3.451-3.45C1.389,4.104,1.225,4.036,1.049,4.036s-0.34,0.068-0.464,0.192L0.191,4.62C0.068,4.744,0,4.909,0,5.084
			C0,5.26,0.068,5.425,0.191,5.549l3.896,3.896c0.005,0.007,0.01,0.014,0.017,0.02l0.394,0.387c0.124,0.123,0.288,0.186,0.465,0.186
			h0.002c0.176,0,0.341-0.063,0.464-0.186l0.394-0.39C5.829,9.455,5.834,9.45,5.837,9.445l5.971-5.97
			C12.064,3.22,12.064,2.804,11.809,2.548z"/>
	</g>
</g>
</svg>
