<?xml version="1.0" encoding="utf-8"?>
<!-- Generator: Adobe Illustrator 16.0.0, SVG Export Plug-In . SVG Version: 6.00 Build 0)  -->
<!DOCTYPE svg PUBLIC "-//W3C//DTD SVG 1.1//EN" "http://www.w3.org/Graphics/SVG/1.1/DTD/svg11.dtd">
<svg version="1.1" id="Layer_1" xmlns="http://www.w3.org/2000/svg" xmlns:xlink="http://www.w3.org/1999/xlink" x="0px" y="0px"
	 width="30px" height="30px" viewBox="0 0 30 30" enable-background="new 0 0 30 30" xml:space="preserve">
<path fill="#F0F0F0" d="M28.5,26.25h-27c-0.829,0-1.5,0.672-1.5,1.5c0,0.829,0.671,1.5,1.5,1.5h27c0.828,0,1.5-0.671,1.5-1.5
	C30,26.922,29.328,26.25,28.5,26.25z"/>
<path fill="#F0F0F0" d="M15,0.75c-0.829,0-1.5,0.672-1.5,1.5v15.884l-4.935-4.95c-0.588-0.588-1.542-0.588-2.13,0
	c-0.588,0.588-0.588,1.542,0,2.13l7.5,7.5c0.583,0.588,1.533,0.592,2.121,0.009c0.003-0.003,0.006-0.006,0.009-0.009l7.5-7.5
	c0.589-0.588,0.589-1.542,0-2.13c-0.588-0.588-1.542-0.588-2.13,0l-4.935,4.95V2.25C16.5,1.422,15.828,0.75,15,0.75L15,0.75z"/>
</svg>
