<svg width="48" height="48" viewBox="0 0 48 48" fill="none" xmlns="http://www.w3.org/2000/svg">
<rect width="48" height="48" rx="24" fill="white"/>
<path d="M34.8 24.5088V22.8C34.8 19.9357 33.6621 17.1886 31.6367 15.1632C29.6113 13.1379 26.8643 12 24 12C21.1357 12 18.3886 13.1379 16.3632 15.1632C14.3378 17.1886 13.2 19.9357 13.2 22.8V24.5088C11.9414 25.063 10.9114 26.0327 10.2823 27.2557C9.65332 28.4786 9.4635 29.8805 9.74466 31.2267C10.0258 32.5729 10.7609 33.7816 11.8268 34.6505C12.8927 35.5195 14.2248 35.9959 15.6 36C16.2365 36 16.847 35.7471 17.297 35.2971C17.7471 34.847 18 34.2365 18 33.6V26.4C18 25.7635 17.7471 25.153 17.297 24.7029C16.847 24.2529 16.2365 24 15.6 24V22.8C15.6 20.5722 16.485 18.4356 18.0603 16.8603C19.6356 15.285 21.7722 14.4 24 14.4C26.2278 14.4 28.3644 15.285 29.9397 16.8603C31.515 18.4356 32.4 20.5722 32.4 22.8V24C31.7635 24 31.153 24.2529 30.7029 24.7029C30.2528 25.153 30 25.7635 30 26.4V33.6H26.4C26.0817 33.6 25.7765 33.7264 25.5515 33.9515C25.3264 34.1765 25.2 34.4817 25.2 34.8C25.2 35.1183 25.3264 35.4235 25.5515 35.6485C25.7765 35.8736 26.0817 36 26.4 36H32.4C33.7752 35.9959 35.1073 35.5195 36.1732 34.6505C37.2391 33.7816 37.9742 32.5729 38.2553 31.2267C38.5365 29.8805 38.3467 28.4786 37.7176 27.2557C37.0886 26.0327 36.0586 25.063 34.8 24.5088ZM15.6 33.6C14.6452 33.6 13.7295 33.2207 13.0544 32.5456C12.3793 31.8705 12 30.9548 12 30C12 29.0452 12.3793 28.1295 13.0544 27.4544C13.7295 26.7793 14.6452 26.4 15.6 26.4V33.6ZM32.4 33.6V26.4C33.3548 26.4 34.2704 26.7793 34.9456 27.4544C35.6207 28.1295 36 29.0452 36 30C36 30.9548 35.6207 31.8705 34.9456 32.5456C34.2704 33.2207 33.3548 33.6 32.4 33.6Z" fill="#555555"/>
</svg>
