<svg width="24" height="24" viewBox="0 0 24 24" fill="none" xmlns="http://www.w3.org/2000/svg">
<g clip-path="url(#clip0_85_2240)">
<path d="M21.5818 7.00763C21.3545 6.11614 20.6727 5.41232 19.8182 5.16834C18.2545 4.72728 12 4.72728 12 4.72728C12 4.72728 5.74545 4.72728 4.18182 5.15895C3.31818 5.40294 2.64545 6.10675 2.41818 6.99825C2 8.62171 2 12 2 12C2 12 2 15.3783 2.41818 17.0018C2.64545 17.8933 3.32727 18.5971 4.18182 18.8411C5.74545 19.2727 12 19.2727 12 19.2727C12 19.2727 18.2545 19.2727 19.8182 18.8411C20.6818 18.5971 21.3545 17.8933 21.5818 17.0018C22 15.3783 22 12 22 12C22 12 22 8.62171 21.5909 6.99825L21.5818 7.00763ZM9.95455 15.078V8.94077L15.1818 12.0094L9.95455 15.078Z" fill="#DD0B0B"/>
</g>
<defs>
<clipPath id="clip0_85_2240">
<rect width="24" height="24" fill="white"/>
</clipPath>
</defs>
</svg>
