<svg width="48" height="48" viewBox="0 0 48 48" fill="none" xmlns="http://www.w3.org/2000/svg">
<rect width="48" height="48" rx="24" fill="white"/>
<path fill-rule="evenodd" clip-rule="evenodd" d="M13.8765 13.4297C13.7529 13.4206 13.5813 13.4198 13.2569 13.4198H12.3225C11.5921 13.4198 11 12.8276 11 12.0972C11 11.3668 11.5921 10.7747 12.3225 10.7747H13.2569C13.2691 10.7747 13.2812 10.7747 13.2934 10.7747C13.5668 10.7747 13.8382 10.7746 14.0714 10.7919C14.332 10.8111 14.6331 10.8563 14.9464 10.9917C15.3876 11.1824 15.7714 11.4907 16.0525 11.8852C16.2501 12.1625 16.3576 12.447 16.4314 12.698C16.4984 12.9258 16.556 13.195 16.6142 13.4665L16.6198 13.4927L16.8876 14.7423L33.3652 14.7423C33.7994 14.7422 34.2084 14.7422 34.5466 14.7724C34.9064 14.8045 35.3468 14.8807 35.7646 15.14C36.326 15.4884 36.7366 16.0346 36.9157 16.6703C37.0489 17.1428 37.0006 17.5866 36.9319 17.9416C36.867 18.2773 36.7528 18.6729 36.6315 19.0933L34.7886 25.4821C34.7778 25.5196 34.7668 25.5583 34.7555 25.598C34.6364 26.0179 34.4874 26.5431 34.1585 26.9601C33.8753 27.3191 33.5027 27.5996 33.0789 27.7723C32.5881 27.9723 32.0427 27.9699 31.6093 27.968C31.5681 27.9678 31.5279 27.9676 31.4888 27.9676H19.7216L19.8749 28.6831C19.9414 28.9934 19.9773 29.157 20.0113 29.2731L20.0131 29.2791C20.0172 29.2795 20.0215 29.2798 20.026 29.2801C20.1502 29.2893 20.3223 29.2901 20.6465 29.2901H30.838C33.0292 29.2901 34.8056 31.0665 34.8056 33.2577C34.8056 35.449 33.0292 37.2253 30.838 37.2253C28.6467 37.2253 26.8704 35.449 26.8704 33.2577C26.8704 32.794 26.9499 32.3489 27.0961 31.9352H22.677C22.8232 32.3489 22.9028 32.794 22.9028 33.2577C22.9028 35.449 21.1264 37.2253 18.9352 37.2253C16.7439 37.2253 14.9676 35.449 14.9676 33.2577C14.9676 31.6223 15.9571 30.218 17.37 29.6108C17.3448 29.5001 17.3204 29.3862 17.2961 29.2724L14.0335 14.0469C13.9657 13.7308 13.9286 13.5627 13.8938 13.4441C13.8924 13.4394 13.891 13.4349 13.8898 13.4308C13.8856 13.4304 13.8812 13.4301 13.8765 13.4297ZM30.838 31.9352C30.1076 31.9352 29.5154 32.5273 29.5154 33.2577C29.5154 33.9881 30.1076 34.5803 30.838 34.5803C31.5684 34.5803 32.1605 33.9881 32.1605 33.2577C32.1605 32.5273 31.5684 31.9352 30.838 31.9352ZM19.1548 25.3225H31.4888C31.7909 25.3225 31.9494 25.3218 32.0638 25.3137C32.0674 25.3134 32.0709 25.3131 32.0742 25.3129C32.0756 25.3094 32.0769 25.3057 32.0783 25.3019C32.118 25.1937 32.163 25.0407 32.2472 24.749L34.0784 18.4008C34.2173 17.9191 34.2958 17.6417 34.3351 17.4391C34.3371 17.4287 34.3389 17.4189 34.3405 17.4098C34.3315 17.4088 34.3218 17.4079 34.3115 17.407C34.1055 17.3886 33.8172 17.3874 33.3154 17.3874H17.4544L19.1548 25.3225ZM18.9352 31.9352C18.2048 31.9352 17.6127 32.5273 17.6127 33.2577C17.6127 33.9881 18.2048 34.5803 18.9352 34.5803C19.6656 34.5803 20.2577 33.9881 20.2577 33.2577C20.2577 32.5273 19.6656 31.9352 18.9352 31.9352Z" fill="#555555"/>
</svg>
