<svg width="48" height="48" viewBox="0 0 48 48" fill="none" xmlns="http://www.w3.org/2000/svg">
<rect width="48" height="48" rx="24" fill="white"/>
<path fill-rule="evenodd" clip-rule="evenodd" d="M15.4683 16.9801C14.8509 17.7141 14.4 18.8159 14.4 20.3759C14.4 23.4157 16.726 26.4047 19.3972 28.7791C20.6944 29.9322 21.9971 30.8736 22.9782 31.5276C23.3836 31.7979 23.7321 32.0178 24 32.182C24.2679 32.0178 24.6164 31.7979 25.0218 31.5276C26.0029 30.8736 27.3056 29.9322 28.6028 28.7791C31.274 26.4047 33.6 23.4157 33.6 20.3759C33.6 18.8159 33.1491 17.7141 32.5317 16.9801C31.9108 16.242 31.0604 15.802 30.1288 15.6677C28.2545 15.3976 26.0857 16.3753 25.104 18.6795C24.9155 19.122 24.481 19.4092 24 19.4092C23.519 19.4092 23.0845 19.122 22.896 18.6795C21.9143 16.3753 19.7455 15.3976 17.8712 15.6677C16.9396 15.802 16.0892 16.242 15.4683 16.9801ZM24 33.5761C23.4172 34.6251 23.4169 34.6249 23.4166 34.6247L23.4131 34.6228L23.4052 34.6183L23.3777 34.6029C23.3543 34.5896 23.321 34.5706 23.2784 34.546C23.1931 34.4967 23.0706 34.4249 22.9161 34.3318C22.6073 34.1455 22.17 33.8733 21.6468 33.5245C20.6029 32.8286 19.2056 31.8199 17.8028 30.5729C15.074 28.1472 12 24.536 12 20.3759C12 18.3358 12.5991 16.6627 13.6317 15.4351C14.6608 14.2117 16.0604 13.5039 17.5288 13.2923C19.8447 12.9586 22.352 13.8533 24 15.892C25.6481 13.8533 28.1553 12.9586 30.4712 13.2923C31.9396 13.5039 33.3392 14.2117 34.3683 15.4351C35.4009 16.6627 36 18.3358 36 20.3759C36 24.536 32.926 28.1472 30.1972 30.5729C28.7944 31.8199 27.3971 32.8286 26.3532 33.5245C25.83 33.8733 25.3927 34.1455 25.0839 34.3318C24.9294 34.4249 24.8069 34.4967 24.7216 34.546C24.679 34.5706 24.6457 34.5896 24.6223 34.6029L24.5948 34.6183L24.5869 34.6228L24.5843 34.6242C24.584 34.6244 24.5828 34.6251 24 33.5761ZM24 33.5761L24.5828 34.6251C24.2204 34.8264 23.779 34.8261 23.4166 34.6247L24 33.5761Z" fill="#555555"/>
</svg>
