<?xml version="1.0" encoding="utf-8"?>
<!-- Generator: Adobe Illustrator 16.0.0, SVG Export Plug-In . SVG Version: 6.00 Build 0)  -->
<!DOCTYPE svg PUBLIC "-//W3C//DTD SVG 1.1//EN" "http://www.w3.org/Graphics/SVG/1.1/DTD/svg11.dtd">
<svg version="1.1" id="Layer_1" xmlns="http://www.w3.org/2000/svg" xmlns:xlink="http://www.w3.org/1999/xlink" x="0px" y="0px"
	 width="204px" height="44px" viewBox="0 0 204 44" enable-background="new 0 0 204 44" xml:space="preserve">
<g>
	<g>
		<path fill="#2E398E" d="M28.997,12.159l3.205-4.472c0,0,0.102-0.218-0.007-0.372c-0.129-0.183-0.551-0.063-0.551-0.063
			l-3.902,1.214l-0.612-3.595c0,0-0.077-0.404-0.279-0.466c-0.266-0.082-0.574,0.186-0.574,0.186l-2.653,2.412l-2.654-3.133
			c0,0-0.154-0.214-0.341-0.14c-0.203,0.078-0.187,0.326-0.187,0.326l0.154,5.551L28.997,12.159z"/>
		<path fill="#2E398E" d="M20.958,2.59c-0.111,0.396-0.515,0.629-0.913,0.521c-0.397-0.108-0.628-0.515-0.523-0.912
			c0.108-0.396,0.518-0.63,0.914-0.521C20.831,1.785,21.064,2.193,20.958,2.59z"/>
		<circle fill="#2E398E" cx="27.27" cy="2.814" r="0.743"/>
		<path fill="#2E398E" d="M33.966,6.535c-0.11,0.397-0.517,0.631-0.913,0.523c-0.396-0.108-0.632-0.517-0.524-0.914
			c0.11-0.396,0.516-0.626,0.914-0.519C33.838,5.732,34.076,6.141,33.966,6.535z"/>
	</g>
	<path fill="#2E398E" d="M28.841,42.349c-0.19,0-0.378-0.029-0.556-0.089L3.248,34.203c-0.946-0.305-1.466-1.325-1.161-2.273
		L5,22.875c0.159-0.492,0.613-0.823,1.129-0.823c0.125,0,0.248,0.019,0.367,0.058l1.157,0.376c0.623,0.202,0.967,0.875,0.766,1.499
		l-2.362,7.338l9.103,2.93l3.686-11.451l-9.265-2.981c-2.229-0.716-2.888-0.928-3.095-1.013c-0.005,0.015-0.449-0.128-0.449-0.128
		c-0.456-0.147-0.827-0.461-1.046-0.889c-0.219-0.426-0.258-0.913-0.112-1.369l2.244-6.975c0.24-0.744,0.928-1.244,1.71-1.244
		c0.187,0,0.372,0.029,0.55,0.087l29,9.332c0.45,0.146,0.819,0.462,1.04,0.893c0.221,0.431,0.262,0.916,0.116,1.365l-2.245,6.976
		c-0.237,0.732-0.942,1.242-1.714,1.242c-0.186,0-0.368-0.029-0.544-0.085l-0.236-0.078l-4.235,13.159
		C30.33,41.833,29.62,42.349,28.841,42.349z M27.686,38.283l3.686-11.451l-9.103-2.929l-3.685,11.45L27.686,38.283z M34.434,24.041
		l1.142-3.547l-11.063-3.56l-1.142,3.547L34.434,24.041z M19.948,19.38l1.142-3.548l-11.095-3.57l-1.141,3.547L19.948,19.38z"/>
	<g>
		<path fill="#2E398E" d="M56.461,31.728c-0.109,0.317-0.174,0.527-0.199,0.63c-0.042,0.116-0.11,0.34-0.199,0.658
			c-0.331,1.102-0.72,2.083-1.166,2.939c-0.443,0.861-1.006,1.614-1.675,2.262c-0.672,0.648-1.467,1.146-2.394,1.5
			c-0.925,0.355-1.994,0.526-3.216,0.519c-2.339-0.016-3.975-0.451-4.914-1.3c-0.937-0.85-1.398-2.096-1.382-3.738
			c0.007-1.206,0.303-3.012,0.882-5.411l0.768-3.213c0.461-1.742,0.911-3.169,1.337-4.28c0.43-1.11,0.997-2.099,1.712-2.965
			c0.716-0.868,1.654-1.539,2.816-2.009c1.161-0.475,2.612-0.703,4.347-0.692c3.58,0.09,5.359,1.624,5.333,4.612
			c-0.004,0.381-0.041,0.803-0.107,1.264c-0.092,0.739-0.195,1.312-0.305,1.713l-4.436-0.032c0.02-0.163,0.053-0.401,0.098-0.724
			c0.092-0.701,0.143-1.222,0.143-1.562c0.008-0.582-0.102-1.039-0.326-1.374c-0.22-0.331-0.623-0.499-1.201-0.504
			c-0.771-0.005-1.425,0.166-1.965,0.512c-0.542,0.349-0.974,0.789-1.3,1.33c-0.327,0.54-0.577,1.073-0.752,1.605
			c-0.176,0.528-0.328,1.144-0.466,1.846l-0.097,0.359l-1.468,6.248c-0.111,0.441-0.196,0.853-0.251,1.232
			c-0.06,0.38-0.089,0.739-0.09,1.082c-0.008,0.781,0.171,1.409,0.532,1.885c0.359,0.474,0.989,0.712,1.888,0.723
			c0.514,0.001,0.956-0.133,1.326-0.414c0.368-0.276,0.672-0.641,0.927-1.091c0.247-0.451,0.45-0.906,0.604-1.367
			c0.154-0.458,0.309-0.99,0.465-1.588c0.088-0.342,0.152-0.571,0.198-0.691L56.461,31.728z"/>
		<path fill="#2E398E" d="M57.682,39.767l5.303-22.525l4.501,0.036l-2.1,8.917l6.303,0.046l2.101-8.916l4.503,0.032L72.99,39.878
			l-4.501-0.03l2.435-10.302l-6.305-0.049l-2.434,10.305L57.682,39.767z"/>
		<path fill="#2E398E" d="M76.723,39.908l5.303-22.526l12.672,0.096l-0.77,3.302l-8.167-0.062l-1.334,5.678l7.526,0.056
			l-0.766,3.304L83.661,29.7l-1.667,6.938l8.171,0.061l-0.771,3.303L76.723,39.908z"/>
		<path fill="#2E398E" d="M95.325,26.956c0.464-1.74,0.912-3.166,1.338-4.274c0.429-1.112,0.999-2.102,1.715-2.967
			c0.713-0.868,1.654-1.537,2.813-2.01c1.164-0.472,2.614-0.703,4.349-0.689c1.201,0.01,2.206,0.13,3.023,0.367
			c0.81,0.238,1.451,0.578,1.923,1.02c0.466,0.446,0.799,0.976,0.996,1.588c0.2,0.611,0.298,1.332,0.289,2.152
			c-0.009,1.085-0.238,2.727-0.686,4.929l-0.769,3.215c-0.443,1.801-0.871,3.285-1.291,4.445c-0.418,1.157-0.989,2.186-1.715,3.085
			c-0.727,0.897-1.68,1.59-2.865,2.085c-1.185,0.491-2.671,0.731-4.478,0.717c-2.334-0.016-3.972-0.448-4.907-1.299
			c-0.938-0.847-1.397-2.095-1.386-3.739c0.012-1.205,0.303-3.01,0.884-5.41L95.325,26.956z M98.689,32.308
			c-0.11,0.441-0.193,0.853-0.25,1.23c-0.058,0.383-0.088,0.742-0.092,1.084c-0.004,0.781,0.174,1.409,0.531,1.883
			c0.362,0.476,0.991,0.715,1.893,0.723c0.774,0.002,1.423-0.15,1.951-0.468c0.527-0.316,0.948-0.729,1.266-1.238
			c0.314-0.511,0.566-1.04,0.752-1.59c0.188-0.552,0.358-1.194,0.514-1.938l1.369-5.764l0.034-0.153
			c0.13-0.539,0.244-1.046,0.334-1.517s0.134-0.938,0.139-1.397c0.007-0.823-0.171-1.486-0.53-1.991
			c-0.359-0.502-0.979-0.757-1.859-0.766c-0.77-0.004-1.425,0.167-1.965,0.516c-0.538,0.345-0.971,0.79-1.298,1.326
			c-0.324,0.542-0.579,1.075-0.753,1.605c-0.176,0.531-0.333,1.148-0.467,1.849l-0.102,0.359L98.689,32.308z"/>
		<path fill="#2E398E" d="M127.7,17.718l4.504,0.032l-5.302,22.527l-4.699-0.034l-1.606-8.046c-0.289-1.306-0.518-2.683-0.688-4.128
			c-0.169-1.443-0.311-3.062-0.424-4.845l-0.067-0.002c-0.224,1.484-0.407,2.668-0.543,3.562c-0.137,0.893-0.293,1.849-0.474,2.872
			c-0.226,1.259-0.438,2.397-0.641,3.406c-0.203,1.015-0.412,1.981-0.634,2.902l-1.002,4.233l-4.504-0.031l5.305-22.526l4.664,0.035
			l1.571,8.222c0.268,1.286,0.494,2.644,0.675,4.066c0.179,1.428,0.325,3.064,0.441,4.907l0.062,0.002
			c0.386-2.483,0.735-4.618,1.051-6.401c0.449-2.521,0.876-4.638,1.279-6.337L127.7,17.718z"/>
		<path fill="#2E398E" d="M140.942,23.772c0.185,0.981,0.274,1.91,0.267,2.788c0,0.08,0,0.202,0,0.366
			c-0.027,0.162-0.037,0.285-0.037,0.368h0.063c0.304-0.714,0.622-1.348,0.949-1.907c0.327-0.557,0.737-1.215,1.235-1.963
			l0.295-0.46l3.354-5.176l4.923,0.037l-9.402,13.12l-2.269,9.744l-4.503-0.032l2.267-9.746l-3.237-13.213l4.919,0.036
			L140.942,23.772z"/>
		<path fill="#2E398E" d="M164.859,17.917l4.501,0.036l-3.704,15.702c-0.597,2.585-1.595,4.453-2.987,5.605
			c-1.391,1.156-3.517,1.722-6.367,1.699c-2.273-0.019-3.903-0.389-4.896-1.118c-0.991-0.729-1.483-1.866-1.47-3.411
			c0.005-0.783,0.145-1.742,0.41-2.884l3.705-15.708l4.503,0.034l-3.605,15.345c-0.222,0.921-0.336,1.633-0.338,2.135
			c-0.008,0.702,0.184,1.246,0.566,1.628c0.381,0.384,1.032,0.579,1.955,0.586c0.707,0.006,1.298-0.109,1.772-0.348
			c0.474-0.238,0.858-0.55,1.149-0.938c0.292-0.391,0.526-0.827,0.703-1.305c0.175-0.48,0.343-1.052,0.498-1.712L164.859,17.917z"/>
		<path fill="#2E398E" d="M167.301,40.501l0.45-1.917l2.054,0.014l-0.45,1.916L167.301,40.501z"/>
		<path fill="#2E398E" d="M179.558,36.708c-0.054,0.153-0.083,0.256-0.096,0.302c-0.019,0.057-0.054,0.166-0.097,0.318
			c-0.158,0.534-0.346,1.009-0.563,1.422c-0.215,0.414-0.483,0.781-0.809,1.096c-0.325,0.311-0.712,0.553-1.158,0.724
			c-0.447,0.173-0.966,0.254-1.556,0.253c-1.13-0.008-1.924-0.22-2.375-0.628c-0.454-0.413-0.677-1.016-0.67-1.812
			c0.004-0.581,0.147-1.454,0.43-2.616l0.366-1.555c0.227-0.84,0.441-1.531,0.647-2.067c0.207-0.538,0.487-1.014,0.834-1.433
			c0.342-0.421,0.795-0.746,1.36-0.972c0.558-0.228,1.258-0.34,2.099-0.337c1.731,0.045,2.591,0.787,2.576,2.232
			c-0.001,0.183-0.016,0.387-0.048,0.608c-0.049,0.36-0.094,0.634-0.147,0.83l-2.146-0.015c0.008-0.081,0.027-0.195,0.047-0.351
			c0.044-0.341,0.068-0.592,0.072-0.757c0-0.281-0.053-0.503-0.161-0.662c-0.107-0.161-0.299-0.241-0.579-0.242
			c-0.373-0.004-0.695,0.078-0.954,0.244c-0.257,0.171-0.467,0.382-0.626,0.644c-0.156,0.26-0.275,0.52-0.362,0.776
			c-0.086,0.255-0.16,0.556-0.228,0.891l-0.044,0.179l-0.711,3.02c-0.056,0.21-0.098,0.411-0.122,0.595
			c-0.025,0.185-0.043,0.36-0.045,0.522c-0.004,0.38,0.085,0.684,0.257,0.91c0.177,0.233,0.479,0.348,0.916,0.351
			c0.248,0,0.464-0.065,0.636-0.199c0.179-0.133,0.328-0.308,0.45-0.527c0.121-0.218,0.219-0.437,0.295-0.66
			c0.07-0.224,0.148-0.479,0.22-0.77c0.045-0.163,0.08-0.273,0.096-0.334L179.558,36.708z"/>
		<path fill="#2E398E" d="M181.537,34.276c0.225-0.844,0.44-1.531,0.649-2.067c0.205-0.538,0.48-1.017,0.827-1.435
			c0.348-0.418,0.799-0.742,1.362-0.973c0.561-0.229,1.263-0.339,2.102-0.335c0.58,0.004,1.07,0.066,1.461,0.178
			c0.396,0.116,0.703,0.281,0.931,0.495c0.222,0.217,0.387,0.474,0.482,0.769s0.143,0.645,0.139,1.04
			c-0.004,0.523-0.114,1.319-0.333,2.383l-0.369,1.555c-0.217,0.87-0.424,1.589-0.626,2.148c-0.2,0.56-0.479,1.06-0.826,1.494
			c-0.351,0.435-0.815,0.771-1.388,1.007c-0.571,0.237-1.293,0.357-2.166,0.348c-1.127-0.009-1.918-0.217-2.374-0.629
			c-0.451-0.408-0.675-1.013-0.667-1.808c0.004-0.583,0.148-1.456,0.427-2.616L181.537,34.276z M183.166,36.864
			c-0.056,0.21-0.094,0.411-0.124,0.597c-0.026,0.181-0.041,0.357-0.042,0.52c-0.004,0.381,0.083,0.685,0.255,0.914
			c0.175,0.228,0.48,0.346,0.915,0.347c0.376,0.003,0.689-0.073,0.947-0.225c0.25-0.152,0.459-0.354,0.607-0.601
			c0.152-0.244,0.276-0.501,0.366-0.768c0.092-0.267,0.171-0.579,0.248-0.937l0.663-2.787l0.014-0.074
			c0.065-0.262,0.119-0.505,0.163-0.733c0.044-0.227,0.063-0.452,0.069-0.677c0.001-0.399-0.084-0.718-0.258-0.96
			c-0.174-0.244-0.474-0.369-0.899-0.372c-0.374-0.002-0.69,0.082-0.95,0.246c-0.262,0.171-0.471,0.384-0.625,0.645
			c-0.163,0.261-0.282,0.52-0.366,0.774c-0.089,0.257-0.162,0.555-0.228,0.894l-0.046,0.175L183.166,36.864z"/>
		<path fill="#2E398E" d="M191.582,40.678l-2.178-0.015l2.565-10.894l3.464,0.026l-0.025,5.062
			c-0.006,0.736-0.063,1.575-0.175,2.516h0.03c0.221-0.675,0.397-1.18,0.516-1.516c0.126-0.335,0.263-0.663,0.409-0.992l2.359-5.046
			L202,29.845l-2.565,10.89l-2.179-0.013l0.809-3.429c0.57-2.394,1.143-4.555,1.72-6.489h-0.029l-4.675,9.899l-1.324-0.009
			l0.054-9.935h-0.078c-0.325,1.917-0.775,4.081-1.344,6.49L191.582,40.678z"/>
	</g>
</g>
</svg>
