<svg width="24" height="24" viewBox="0 0 24 24" fill="none" xmlns="http://www.w3.org/2000/svg">
<path d="M12 12V20.579" stroke="#555555" stroke-width="2" stroke-linecap="round" stroke-linejoin="round"/>
<path d="M8.70044 17.2794L12 20.579L15.2996 17.2794" stroke="#555555" stroke-width="2" stroke-linecap="round" stroke-linejoin="round"/>
<path d="M6.06082 20.579H4.74098C4.39094 20.579 4.05523 20.4399 3.80771 20.1924C3.5602 19.9449 3.42114 19.6092 3.42114 19.2591V4.74089C3.42114 4.39085 3.5602 4.05514 3.80771 3.80762C4.05523 3.56011 4.39094 3.42105 4.74098 3.42105H19.2592C19.6093 3.42105 19.945 3.56011 20.1925 3.80762C20.44 4.05514 20.579 4.39085 20.579 4.74089V19.2591C20.579 19.6092 20.44 19.9449 20.1925 20.1924C19.945 20.4399 19.6093 20.579 19.2592 20.579H17.9394" stroke="#555555" stroke-width="2" stroke-linecap="round" stroke-linejoin="round"/>
<path d="M3.42114 7.38057H20.579" stroke="#555555" stroke-width="2" stroke-linecap="round" stroke-linejoin="round"/>
</svg>
