<svg width="40" height="40" viewBox="0 0 40 40" fill="none" xmlns="http://www.w3.org/2000/svg">
<path d="M30.6906 6.255H9.30945C7.28497 6.25743 5.34411 7.06272 3.91258 8.49425C2.48106 9.92577 1.67576 11.8666 1.67334 13.8911H38.3267C38.3242 11.8666 37.5189 9.92577 36.0874 8.49425C34.6559 7.06272 32.715 6.25743 30.6906 6.255Z" fill="#005BF1"/>
<path d="M1.67334 26.1086C1.67576 28.1331 2.48106 30.074 3.91258 31.5055C5.34411 32.937 7.28497 33.7423 9.30945 33.7447H30.6906C32.715 33.7423 34.6559 32.937 36.0874 31.5055C37.5189 30.074 38.3242 28.1331 38.3267 26.1086V16.9453H1.67334V26.1086ZM12.3639 25.345C12.3639 25.7981 12.2295 26.241 11.9778 26.6177C11.7261 26.9945 11.3683 27.2881 10.9497 27.4615C10.5311 27.6349 10.0705 27.6802 9.62614 27.5918C9.18176 27.5034 8.77357 27.2853 8.4532 26.9649C8.13282 26.6445 7.91464 26.2363 7.82624 25.7919C7.73785 25.3476 7.78322 24.887 7.95661 24.4684C8.12999 24.0498 8.42362 23.692 8.80034 23.4403C9.17707 23.1886 9.61997 23.0542 10.0731 23.0542C10.6806 23.0542 11.2633 23.2956 11.6929 23.7252C12.1225 24.1548 12.3639 24.7375 12.3639 25.345Z" fill="#A4C5FF"/>
</svg>
