<svg width="40" height="40" viewBox="0 0 40 40" fill="none" xmlns="http://www.w3.org/2000/svg">
<path fill-rule="evenodd" clip-rule="evenodd" d="M6.38799 4.29529H33.6387C35.114 4.29529 36.3114 5.49265 36.3114 6.96798V21.8923C36.3114 23.3676 35.114 24.5649 33.6387 24.5649H6.38799C4.91267 24.5649 3.7153 23.3676 3.7153 21.8923V6.96798C3.7153 5.49265 4.91267 4.29529 6.38799 4.29529ZM22.7127 11.0626H9.13545C8.54746 11.0626 8.06638 10.5815 8.06638 9.99348C8.06638 9.40548 8.54746 8.9244 9.13545 8.9244H22.7127C23.3007 8.9244 23.7818 9.40548 23.7818 9.99348C23.7818 10.5815 23.3007 11.0626 22.7127 11.0626ZM9.13545 16.4934H15.9241C16.5121 16.4934 16.9932 16.0123 16.9932 15.4243C16.9932 14.8363 16.5121 14.3553 15.9241 14.3553H9.13545C8.54746 14.3553 8.06638 14.8363 8.06638 15.4243C8.06638 16.0123 8.54746 16.4934 9.13545 16.4934Z" fill="#005BF1"/>
<path d="M39.2299 33.3207L37.3591 29.0978C36.8459 27.9432 35.7768 27.2163 34.5902 27.2163H5.41511C4.22843 27.2163 3.15936 27.9539 2.6462 29.0978L0.775322 33.3207C0.283547 34.4325 1.0319 35.7047 2.17581 35.7047H37.8295C38.9627 35.7047 39.711 34.4218 39.2299 33.3207Z" fill="#A4C5FF"/>
</svg>
