<svg width="16" height="16" viewBox="0 0 16 16" fill="none" xmlns="http://www.w3.org/2000/svg">
<g clip-path="url(#clip0_404_6473)">
<path d="M13.7714 9.90541C13.3863 9.53886 12.8748 9.33481 12.3431 9.33568C11.8115 9.33654 11.3006 9.54227 10.9167 9.91008L9.64606 10.9807C8.60882 10.5513 7.66662 9.92126 6.87356 9.12671C6.0805 8.33216 5.45219 7.38878 5.02473 6.35074L6.09139 5.08408C6.45892 4.70014 6.6644 4.18937 6.66514 3.65788C6.66589 3.12639 6.46184 2.61504 6.09539 2.23008C6.09539 2.23008 4.86139 0.628076 4.84073 0.60741C4.46042 0.224215 3.94454 0.00616049 3.40469 0.000421384C2.86484 -0.00531772 2.34443 0.201721 1.95606 0.576743L1.1894 1.24341C-3.95726 6.71541 9.32272 20.0021 14.7894 14.7767L15.3974 14.0767C15.7833 13.6894 16 13.1649 16 12.6181C16 12.0713 15.7833 11.5468 15.3974 11.1594C15.376 11.1401 13.7714 9.90541 13.7714 9.90541Z" fill="#888888"/>
</g>
<defs>
<clipPath id="clip0_404_6473">
<rect width="16" height="16" fill="white"/>
</clipPath>
</defs>
</svg>
