<svg width="16" height="16" viewBox="0 0 16 16" fill="none" xmlns="http://www.w3.org/2000/svg">
<path d="M15.3333 13.3332C15.1565 13.3332 14.987 13.4035 14.8619 13.5285C14.7369 13.6535 14.6667 13.8231 14.6667 13.9999C14.6667 14.2292 14.212 14.6666 13.5 14.6666C13.3 14.6736 13.1009 14.636 12.9172 14.5566C12.7336 14.4771 12.5698 14.3578 12.438 14.2072C12.464 14.1647 12.4925 14.1238 12.5233 14.0846C13.6105 12.9444 14.3417 11.5119 14.6273 9.9626C14.7119 9.49646 14.6282 9.01544 14.3912 8.60523C14.1543 8.19501 13.7794 7.88224 13.3333 7.72261V5.99996C13.3333 5.29272 13.0524 4.61445 12.5523 4.11435C12.0522 3.61426 11.3739 3.33331 10.6667 3.33331V2.66665C10.6667 1.95941 10.3857 1.28114 9.88562 0.781043C9.38552 0.28095 8.70724 0 8 0C7.29276 0 6.61448 0.28095 6.11438 0.781043C5.61428 1.28114 5.33333 1.95941 5.33333 2.66665V3.33331C4.62609 3.33331 3.94781 3.61426 3.44772 4.11435C2.94762 4.61445 2.66667 5.29272 2.66667 5.99996V7.71394C2.21506 7.86994 1.83422 8.18245 1.59308 8.59491C1.35193 9.00737 1.26641 9.49254 1.352 9.9626C1.64477 11.5138 2.38307 12.9461 3.47667 14.0846C3.50866 14.1248 3.53827 14.1669 3.56533 14.2106C3.43336 14.3616 3.26907 14.4811 3.08465 14.56C2.90023 14.639 2.70041 14.6754 2.5 14.6666C1.774 14.6666 1.33333 14.2039 1.33333 13.9999C1.33333 13.8231 1.2631 13.6535 1.13807 13.5285C1.01305 13.4035 0.843478 13.3332 0.666667 13.3332C0.489856 13.3332 0.320286 13.4035 0.195262 13.5285C0.0702379 13.6535 0 13.8231 0 13.9999C0 15.0839 1.14533 15.9999 2.5 15.9999C3.17412 16.006 3.82793 15.7694 4.342 15.3332C4.85473 15.7614 5.50105 15.9969 6.16907 15.9988C6.8371 16.0008 7.48478 15.7691 8 15.3439C8.51709 15.7687 9.16605 16 9.83525 15.998C10.5045 15.9961 11.1521 15.761 11.6667 15.3332C12.1777 15.767 12.8271 16.0035 13.4973 15.9999C14.8547 15.9999 16 15.0839 16 13.9999C16 13.8231 15.9298 13.6535 15.8047 13.5285C15.6797 13.4035 15.5101 13.3332 15.3333 13.3332ZM6.66667 2.66665C6.66667 2.31303 6.80714 1.97389 7.05719 1.72385C7.30724 1.4738 7.64638 1.33332 8 1.33332C8.35362 1.33332 8.69276 1.4738 8.94281 1.72385C9.19286 1.97389 9.33333 2.31303 9.33333 2.66665V3.33331H6.66667V2.66665ZM5.33333 4.66663H10.6667C11.0203 4.66663 11.3594 4.80711 11.6095 5.05715C11.8595 5.3072 12 5.64634 12 5.99996V7.27995L8.632 6.17462C8.22257 6.03995 7.78077 6.03995 7.37133 6.17462L4 7.27528V5.99996C4 5.64634 4.14048 5.3072 4.39052 5.05715C4.64057 4.80711 4.97971 4.66663 5.33333 4.66663ZM6.16667 14.6666C5.94384 14.6788 5.72166 14.633 5.52176 14.5338C5.32186 14.4347 5.15106 14.2854 5.026 14.1006C4.88713 13.7677 4.69632 13.459 4.46067 13.1859C3.54161 12.2344 2.91841 11.0366 2.66667 9.73793C2.63588 9.57818 2.66351 9.41269 2.74452 9.2716C2.82553 9.13052 2.95452 9.02322 3.108 8.96927L7.33333 7.58861V13.9999C7.33333 14.2292 6.87867 14.6666 6.16667 14.6666ZM9.83333 14.6666C9.10733 14.6666 8.66667 14.2039 8.66667 13.9999V7.58928L12.87 8.9686C13.024 9.02244 13.1535 9.1298 13.235 9.27112C13.3165 9.41245 13.3446 9.57834 13.314 9.7386C13.0695 11.0356 12.4529 12.2334 11.5393 13.1859C11.3022 13.4593 11.1112 13.7696 10.974 14.1046C10.8489 14.2891 10.678 14.4379 10.478 14.5364C10.278 14.6349 10.0559 14.6798 9.83333 14.6666Z" fill="#555555"/>
</svg>
