<svg width="16" height="17" viewBox="0 0 16 17" fill="none" xmlns="http://www.w3.org/2000/svg">
<g clip-path="url(#clip0_404_6477)">
<path d="M8 10.4945C6.89544 10.4945 6 11.3899 6 12.4945V16.4945H10V12.4945C10 11.3899 9.10456 10.4945 8 10.4945Z" fill="#374957"/>
<path d="M11.3333 12.4948V16.4948H14C15.1046 16.4948 16 15.5994 16 14.4948V8.41414C16.0002 8.0678 15.8656 7.73499 15.6247 7.48614L9.95934 1.36145C8.95972 0.279892 7.27259 0.213486 6.19103 1.21311C6.13966 1.26061 6.09016 1.31008 6.04269 1.36145L0.387344 7.48414C0.139156 7.73402 -9.37027e-05 8.07196 4.73072e-08 8.42414V14.4948C4.73072e-08 15.5994 0.895437 16.4948 2 16.4948H4.66666V12.4948C4.67912 10.6769 6.14684 9.19242 7.91894 9.14967C9.75031 9.10549 11.3194 10.6153 11.3333 12.4948Z" fill="#374957"/>
<path d="M8 10.4945C6.89544 10.4945 6 11.3899 6 12.4945V16.4945H10V12.4945C10 11.3899 9.10456 10.4945 8 10.4945Z" fill="#374957"/>
<path d="M8 10.4945C6.89544 10.4945 6 11.3899 6 12.4945V16.4945H10V12.4945C10 11.3899 9.10456 10.4945 8 10.4945Z" fill="#888888"/>
<path d="M11.3333 12.4948V16.4948H14C15.1046 16.4948 16 15.5994 16 14.4948V8.41414C16.0002 8.0678 15.8656 7.73499 15.6247 7.48614L9.95934 1.36145C8.95972 0.279892 7.27259 0.213486 6.19103 1.21311C6.13966 1.26061 6.09016 1.31008 6.04269 1.36145L0.387344 7.48414C0.139156 7.73402 -9.37027e-05 8.07196 4.73072e-08 8.42414V14.4948C4.73072e-08 15.5994 0.895437 16.4948 2 16.4948H4.66666V12.4948C4.67912 10.6769 6.14684 9.19242 7.91894 9.14967C9.75031 9.10549 11.3194 10.6153 11.3333 12.4948Z" fill="#888888"/>
<path d="M8 10.4945C6.89544 10.4945 6 11.3899 6 12.4945V16.4945H10V12.4945C10 11.3899 9.10456 10.4945 8 10.4945Z" fill="#888888"/>
</g>
<defs>
<clipPath id="clip0_404_6477">
<rect width="16" height="16" fill="white" transform="translate(0 0.5)"/>
</clipPath>
</defs>
</svg>
