<svg width="33" height="33" viewBox="0 0 33 33" fill="none" xmlns="http://www.w3.org/2000/svg">
<path d="M13.6549 21.8333H6.98828V28.5M26.2117 20.4961C25.4641 22.3464 24.2124 23.9499 22.599 25.1243C20.9855 26.2987 19.0752 26.9964 17.0846 27.1391C15.0941 27.2817 13.103 26.8633 11.3385 25.931C9.57405 24.9987 8.10671 23.59 7.10286 21.8652" stroke="#A4C5FF" stroke-width="3.5" stroke-linecap="round" stroke-linejoin="round"/>
<path d="M19.5445 11.1667H26.2112V4.5M6.98853 12.5045C7.73611 10.6542 8.98777 9.05072 10.6012 7.8763C12.2147 6.70189 14.127 6.00336 16.1175 5.86068C18.1081 5.71799 20.0975 6.13654 21.862 7.06882C23.6265 8.0011 25.0928 9.41005 26.0967 11.1348" stroke="#005BF1" stroke-width="3.5" stroke-linecap="round" stroke-linejoin="round"/>
</svg>
