<svg width="80" height="81" viewBox="0 0 80 81" fill="none" xmlns="http://www.w3.org/2000/svg">
<rect y="0.5" width="80" height="80" rx="20" fill="#F8F8F8"/>
<path d="M53.4127 47.1571L42.0568 51.8105C41.4923 50.6674 40.5485 49.768 39.3559 49.2657C38.4545 48.8867 37.4925 48.7634 36.5457 48.8897L26.3278 24.3835C26.2246 24.1369 26.0183 23.9504 25.7633 23.8691L20.2614 22.1335C19.7819 21.9831 19.269 22.2448 19.1173 22.7201C18.9656 23.1954 19.2296 23.7037 19.7091 23.8541L24.8044 25.4604L34.8007 49.4311C32.376 50.6704 31.2501 53.5641 32.288 56.1239C33.1256 58.1934 35.1406 59.4508 37.2619 59.4508C37.9265 59.4508 38.6002 59.3275 39.2527 59.0688C40.5789 58.5394 41.6198 57.5317 42.1812 56.2292C42.5514 55.3719 42.6789 54.4545 42.5757 53.5551L54.1107 48.8295C54.575 48.64 54.7965 48.1106 54.6053 47.6504C54.4142 47.1902 53.88 46.9706 53.4157 47.1601L53.4127 47.1571ZM33.9783 55.4501C33.253 53.6574 34.1331 51.6149 35.9388 50.896C36.8158 50.5471 37.7748 50.5591 38.6427 50.9231C39.5106 51.2901 40.1813 51.9699 40.5333 52.8392C40.8854 53.7055 40.8763 54.659 40.506 55.5193C40.1358 56.3796 39.4499 57.0444 38.5729 57.3933C36.7672 58.1122 34.7036 57.2429 33.9783 55.4501Z" fill="#005BF1"/>
<path d="M40.5333 52.8392C40.1813 51.9699 39.5106 51.2901 38.6427 50.9231C37.7748 50.5561 36.8158 50.5471 35.9388 50.896C34.1301 51.6149 33.253 53.6604 33.9783 55.4501C34.7036 57.2399 36.7672 58.1122 38.5729 57.3933C39.4469 57.0444 40.1358 56.3796 40.506 55.5193C40.8763 54.659 40.8854 53.7085 40.5333 52.8392Z" fill="#A4C5FF"/>
<path d="M46.4146 25.9838L48.5966 31.2147C48.7878 31.6749 48.5693 32.2043 48.1019 32.3938L43.8533 34.1355C43.741 34.1806 43.6227 34.2046 43.5043 34.2046C43.386 34.2046 43.2676 34.1806 43.1553 34.1355C42.9338 34.0452 42.7547 33.8677 42.6637 33.6482L40.4817 28.4172L34.737 30.7695L41.4013 46.748L58.8206 39.61L52.1593 23.6315L46.4146 25.9838Z" fill="#E1ECFF"/>
<path d="M53.4946 22.1065C53.4036 21.8839 53.2245 21.7094 53.003 21.6192C52.7784 21.5259 52.5296 21.5259 52.305 21.6192L33.2045 29.446C32.9799 29.5362 32.8039 29.7137 32.7129 29.9333C32.6188 30.1559 32.6188 30.4025 32.7129 30.6251L40.0721 48.2731C40.1631 48.4956 40.3421 48.6701 40.5637 48.7604C40.676 48.8055 40.7943 48.8295 40.9127 48.8295C41.031 48.8295 41.1494 48.8055 41.2617 48.7604L60.3622 40.9335C60.8265 40.744 61.048 40.2146 60.8569 39.7544L53.4946 22.1065ZM41.4073 46.748L34.7431 30.7695L40.4878 28.4172L42.6698 33.6482C42.7608 33.8707 42.9399 34.0452 43.1614 34.1355C43.2737 34.1806 43.392 34.2046 43.5104 34.2046C43.6287 34.2046 43.7471 34.1806 43.8594 34.1355L48.108 32.3938C48.5723 32.2043 48.7938 31.6749 48.6027 31.2147L46.4207 25.9838L52.1654 23.6315L58.8297 39.61L41.4104 46.748H41.4073ZM44.7334 26.6756L46.5664 31.0733L44.002 32.1231L42.169 27.7254L44.7334 26.6756Z" fill="#005BF1"/>
<path d="M44.7295 26.6744L42.1662 27.7247L44.0003 32.1224L46.5636 31.0721L44.7295 26.6744Z" fill="#A4C5FF"/>
</svg>
