<svg width="80" height="81" viewBox="0 0 80 81" fill="none" xmlns="http://www.w3.org/2000/svg">
<rect y="0.5" width="80" height="80" rx="20" fill="#F8F8F8"/>
<path d="M38.9769 40.9476L25.0242 32.809V49.2305L38.9769 57.3691V40.9476Z" fill="#E1ECFF"/>
<path d="M50.0077 35.7051V43.6165L48.6273 42.7565L46.7027 45.6711V37.6338L40.8012 41.0766V57.4981L54.9758 49.2305V32.809L50.0077 35.7051Z" fill="#A4C5FF"/>
<path d="M56.344 30.435L40.4546 21.1693C40.1718 21.0035 39.8252 21.0035 39.5424 21.1693L23.656 30.435C23.3733 30.6009 23.2 30.9049 23.2 31.2335V49.7649C23.2 50.0935 23.3733 50.3976 23.656 50.5634L39.1989 59.6295C39.3661 59.826 39.6124 59.955 39.8891 59.955C39.9103 59.955 39.9316 59.9489 39.9529 59.9489C39.9681 59.9489 39.9863 59.955 40.0015 59.955C40.1597 59.955 40.3178 59.9151 40.4576 59.8322L56.344 50.5665C56.6268 50.4006 56.8001 50.0966 56.8001 49.768V31.2366C56.8001 30.908 56.6268 30.604 56.344 30.4381V30.435ZM39.9985 39.4151L25.9516 31.2243L31.6403 27.9075L45.8727 35.9908L39.9955 39.4182L39.9985 39.4151ZM48.904 34.2218L34.8449 26.0371L39.9985 23.0305L54.0454 31.2213L48.904 34.2187V34.2218ZM25.0242 32.809L38.9769 40.9445V57.366L25.0242 49.2305V32.809ZM40.8012 57.4981V41.0766L46.7027 37.6338V45.6711L48.6243 42.7565L50.0047 43.6195V35.7082L54.9728 32.8121V49.2336L40.7982 57.5012L40.8012 57.4981Z" fill="#005BF1"/>
<path d="M31.6433 27.9075L25.9516 31.2243L39.9985 39.4151L45.8757 35.9877L31.6433 27.9075Z" fill="#E1ECFF"/>
<path d="M34.8449 26.0371L48.904 34.2218L54.0454 31.2243L39.9985 23.0305L34.8449 26.0371Z" fill="#E1ECFF"/>
</svg>
