<svg width="80" height="81" viewBox="0 0 80 81" fill="none" xmlns="http://www.w3.org/2000/svg">
<rect y="0.5" width="80" height="80" rx="20" fill="#F8F8F8"/>
<path d="M49.0191 26.1144H27.9264C25.7601 26.1144 24.0039 27.8604 24.0039 30.0143V50.9857C24.0039 53.1396 25.7601 54.8856 27.9264 54.8856H49.0191C51.1854 54.8856 52.9416 53.1396 52.9416 50.9857V30.0143C52.9416 27.8604 51.1854 26.1144 49.0191 26.1144Z" fill="#E1ECFF"/>
<path d="M49.0191 55.8518H27.9264C25.2283 55.8518 23.0322 53.6683 23.0322 50.9857V30.0143C23.0322 27.3317 25.2283 25.1482 27.9264 25.1482H49.0191C51.7172 25.1482 53.9133 27.3317 53.9133 30.0143V50.9857C53.9133 53.6683 51.7172 55.8518 49.0191 55.8518ZM27.9264 27.0805C26.3004 27.0805 24.9757 28.3976 24.9757 30.0143V50.9857C24.9757 52.6024 26.3004 53.9195 27.9264 53.9195H49.0191C50.6451 53.9195 51.9699 52.6024 51.9699 50.9857V30.0143C51.9699 28.3976 50.6451 27.0805 49.0191 27.0805H27.9264Z" fill="#005BF1"/>
<path d="M55.996 35.5663H47.9858C45.2553 35.5663 43.0236 37.7852 43.0236 40.5C43.0236 43.2148 45.2553 45.4337 47.9858 45.4337H55.996V35.5663Z" fill="#A4C5FF"/>
<path d="M55.996 46.3998H47.9858C44.7144 46.3998 42.0519 43.7526 42.0519 40.5C42.0519 37.2474 44.7144 34.6002 47.9858 34.6002H55.996C56.5337 34.6002 56.9677 35.0317 56.9677 35.5663V45.4337C56.9677 45.9683 56.5337 46.3998 55.996 46.3998ZM47.9891 36.5324C45.7898 36.5324 43.9986 38.3133 43.9986 40.5C43.9986 42.6867 45.7898 44.4676 47.9891 44.4676H55.0275V36.5324H47.9891Z" fill="#005BF1"/>
<path d="M49.8969 40.5C49.8969 41.3824 49.1778 42.0973 48.2903 42.0973C47.4028 42.0973 46.6837 41.3824 46.6837 40.5C46.6837 39.6176 47.4028 38.9027 48.2903 38.9027C49.1778 38.9027 49.8969 39.6176 49.8969 40.5Z" fill="#005BF1"/>
</svg>
