<svg width="32" height="33" viewBox="0 0 32 33" fill="none" xmlns="http://www.w3.org/2000/svg">
<path d="M9.59996 0.5C5.51675 0.5 3.19995 2.81728 3.19995 6.90337V30.916C3.19995 32.0653 4.39356 32.8186 5.44956 32.3668L16 27.8643L26.5504 32.3668C27.6064 32.8194 28.8 32.065 28.8 30.916V6.90337C28.8 2.70368 26.712 0.5 22.4 0.5H9.59996Z" fill="#005BF1"/>
<path d="M19.1694 8.04462C17.9501 8.05359 16.7949 8.59005 16 9.51503C15.2065 8.59005 14.0514 8.05359 12.832 8.04462C10.7146 8.0237 8.98116 9.72125 8.95874 11.8387C8.95874 11.8641 8.95874 11.8895 8.95874 11.9149C8.95874 14.5748 11.3526 16.7416 14.9794 20.0335L16 20.9555L17.0206 20.0261C20.6473 16.7416 23.0412 14.5733 23.0412 11.9134C23.0636 9.79746 21.3631 8.06405 19.2456 8.04462C19.2202 8.04462 19.1948 8.04462 19.1694 8.04462Z" fill="#A4C5FF"/>
</svg>
