<svg width="80" height="81" viewBox="0 0 80 81" fill="none" xmlns="http://www.w3.org/2000/svg">
<rect y="0.5" width="80" height="80" rx="20" fill="#F8F8F8"/>
<path d="M35.909 23.6176C28.8451 23.6176 23.1189 29.3437 23.1189 36.4076C23.1189 43.4714 28.8451 49.1976 35.909 49.1976C42.9728 49.1976 48.699 43.4714 48.699 36.4076C48.699 29.3437 42.9728 23.6176 35.909 23.6176Z" fill="#A4C5FF"/>
<path d="M35.909 50.0644C28.38 50.0644 22.2522 43.9395 22.2522 36.4076C22.2522 28.8757 28.38 22.7508 35.909 22.7508C43.438 22.7508 49.5657 28.8786 49.5657 36.4076C49.5657 43.9366 43.438 50.0644 35.909 50.0644ZM35.909 24.4843C29.3334 24.4843 23.9857 29.832 23.9857 36.4076C23.9857 42.9832 29.3334 48.3309 35.909 48.3309C42.4845 48.3309 47.8323 42.9803 47.8323 36.4076C47.8323 29.8349 42.4845 24.4843 35.909 24.4843Z" fill="#005BF1"/>
<path d="M48.3754 49.7697C48.153 49.7697 47.9305 49.6859 47.7629 49.5154L44.3278 46.0803C43.9898 45.7423 43.9898 45.1933 44.3278 44.8553C44.6658 44.5173 45.2147 44.5173 45.5528 44.8553L48.9879 48.2904C49.3259 48.6285 49.3259 49.1774 48.9879 49.5154C48.8174 49.6859 48.5979 49.7697 48.3754 49.7697Z" fill="#005BF1"/>
<path d="M39.404 44.7465C44.0104 42.8168 46.1802 37.5182 44.2505 32.9118C42.3208 28.3055 37.0223 26.1356 32.4159 28.0653C27.8095 29.9951 25.6397 35.2936 27.5694 39.9C29.4991 44.5063 34.7977 46.6762 39.404 44.7465Z" fill="#E1ECFF"/>
<path d="M35.909 46.3201C30.4428 46.3201 25.9965 41.8738 25.9965 36.4105C25.9965 30.9472 30.4457 26.498 35.909 26.498C41.3722 26.498 45.8186 30.9443 45.8186 36.4105C45.8186 41.8766 41.3722 46.3201 35.909 46.3201ZM35.909 28.2314C31.3991 28.2314 27.7299 31.9006 27.7299 36.4105C27.7299 40.9204 31.3991 44.5866 35.909 44.5866C40.4188 44.5866 44.0851 40.9175 44.0851 36.4105C44.0851 31.9035 40.416 28.2314 35.909 28.2314Z" fill="#005BF1"/>
<path d="M49.1288 46.1094L45.611 49.6273L53.3678 57.3842L56.8857 53.8663L49.1288 46.1094Z" fill="#A4C5FF"/>
<path d="M53.3649 58.2492C53.1424 58.2492 52.92 58.1654 52.7524 57.9949L44.9952 50.2377C44.8334 50.0759 44.7409 49.8534 44.7409 49.6252C44.7409 49.397 44.8334 49.1745 44.9952 49.0127L48.5112 45.4967C48.8492 45.1587 49.3982 45.1587 49.7362 45.4967L57.4934 53.2539C57.6552 53.4157 57.7477 53.6382 57.7477 53.8664C57.7477 54.0946 57.6552 54.3171 57.4934 54.4789L53.9774 57.9949C53.8069 58.1654 53.5874 58.2492 53.3649 58.2492ZM46.8355 49.6252L53.3649 56.1546L55.6559 53.8635L49.1266 47.3342L46.8355 49.6252Z" fill="#005BF1"/>
</svg>
