<svg width="33" height="33" viewBox="0 0 33 33" fill="none" xmlns="http://www.w3.org/2000/svg">
<path d="M32.2001 26.2127C32.2001 29.5255 30.2284 31.0092 28.275 31.0092H24.5461H20.8172C17.8096 30.9833 14.9152 29.8583 12.6795 27.8463C10.4437 25.8342 9.02107 23.0739 8.67949 20.0856C8.55713 18.4 8.79905 16.7077 9.38883 15.1239C9.97861 13.54 10.9024 12.1017 12.0975 10.9066C13.2926 9.71155 14.7309 8.78773 16.3147 8.19795C17.8986 7.60817 19.5908 7.36624 21.2765 7.48861C24.2636 7.82974 27.0229 9.25121 29.0349 11.4853C31.0468 13.7195 32.1726 16.6121 32.2001 19.6185V26.2127Z" fill="#A4C5FF"/>
<path d="M4.12519 25.5424H11.5829C14.5906 25.5165 17.485 24.3915 19.7207 22.3795C21.9564 20.3674 23.3791 17.6072 23.7207 14.6188C23.843 12.9332 23.6011 11.2409 23.0113 9.65707C22.4215 8.07322 21.4977 6.6349 20.3026 5.43982C19.1076 4.24475 17.6692 3.32094 16.0854 2.73115C14.5016 2.14137 12.8093 1.89944 11.1237 2.02181C8.13654 2.36295 5.3772 3.78442 3.36525 6.01855C1.35331 8.25268 0.227585 11.1453 0.200073 14.1517V20.7459C0.200073 24.0587 2.17179 25.5424 4.12519 25.5424Z" fill="#005BF1"/>
<path d="M11.9758 9.07078C10.9032 9.07078 10.0337 9.94679 10.0337 11.0274C10.0337 11.6758 9.51204 12.2014 8.8685 12.2014C8.22495 12.2014 7.70325 11.6758 7.70325 11.0274C7.70325 8.65006 9.61615 6.72284 11.9758 6.72284C14.3355 6.72284 16.2484 8.65006 16.2484 11.0274C16.2484 12.9978 14.9344 14.6589 13.1411 15.1699C13.1411 15.8183 12.6194 16.3439 11.9758 16.3439C11.3323 16.3439 10.8106 15.8183 10.8106 15.1699V14.158C10.8106 13.5096 11.3323 12.984 11.9758 12.984C13.0484 12.984 13.9179 12.108 13.9179 11.0274C13.9179 9.94679 13.0484 9.07078 11.9758 9.07078Z" fill="white"/>
<path d="M11.9758 20.8105C12.8339 20.8105 13.5295 20.1097 13.5295 19.2452C13.5295 18.3807 12.8339 17.6799 11.9758 17.6799C11.1178 17.6799 10.4222 18.3807 10.4222 19.2452C10.4222 20.1097 11.1178 20.8105 11.9758 20.8105Z" fill="white"/>
</svg>
