<svg width="80" height="81" viewBox="0 0 80 81" fill="none" xmlns="http://www.w3.org/2000/svg">
<rect y="0.5" width="80" height="80" rx="20" fill="#F8F8F8"/>
<path d="M38.1084 25.187C35.9509 25.187 33.9001 25.6582 32.0454 26.5003C32.2329 26.677 32.4031 26.9125 32.5473 27.2246C32.5646 27.2158 32.5819 27.207 32.5963 27.1981V27.098C32.5963 26.8536 32.6973 26.6181 32.8732 26.4502C33.0492 26.2824 33.2857 26.1999 33.5251 26.2147C33.7097 26.2294 35.3711 26.3678 36.3807 27.1245C36.6951 27.3601 37.2835 27.8018 37.2892 28.532C37.295 29.3417 36.597 29.9454 35.6076 30.7109C34.8375 31.3057 34.0876 31.6502 33.427 31.9565C32.6396 32.3187 32.0685 32.5807 31.7252 33.1196C30.6724 34.7685 28.7283 35.2691 26.6545 35.6695C26.7323 35.8462 26.8621 36.0729 26.9487 36.2319L26.9948 36.3114C27.5082 37.2272 27.5457 38.0987 27.0958 38.6435C27.0294 38.723 26.9198 38.8349 26.7554 38.9262C26.8102 38.8967 26.8679 38.8702 26.9314 38.8555C27.4448 38.7259 30.0696 38.0987 31.2666 38.4698C31.5349 38.5522 32.0108 38.5787 32.4723 38.6052C33.5741 38.6641 34.826 38.7348 35.6596 39.5239C35.9451 39.7948 36.1614 40.0245 36.3489 40.2276C36.4903 40.3778 36.6085 40.5044 36.7268 40.6134L37.1248 40.3955C37.3354 40.2806 37.5834 40.26 37.8113 40.3366L40.7909 41.3672L43.5311 39.998L36.3172 36.12C36.0316 35.9669 35.8557 35.6666 35.8557 35.3368C35.8557 35.007 36.0345 34.7067 36.3172 34.5565L38.9391 33.149C39.1353 33.043 39.366 33.0195 39.5794 33.0813L50.8026 36.3674L52.3227 35.6283C50.3238 29.5655 44.7079 25.187 38.1055 25.187H38.1084Z" fill="#E1ECFF"/>
<path d="M30.5801 48.3957C30.5311 48.0954 30.4648 47.7273 30.3984 47.5742C29.5619 47.1473 26.79 45.1185 26.3026 43.2016C25.8613 41.4702 26.2795 39.5946 26.2968 39.5151C26.3516 39.2766 26.4987 39.0793 26.6977 38.9585C26.542 39.0351 26.3458 39.094 26.1007 39.094C25.9218 39.094 25.7228 39.0645 25.4949 38.9909C25.1603 38.9379 24.4191 38.7318 23.3288 37.925C23.1903 38.7613 23.1124 39.6211 23.1124 40.4985C23.1124 44.0761 24.3239 47.3652 26.343 49.9769C27.5948 49.5559 29.0052 49.0347 30.583 48.3957H30.5801Z" fill="#E1ECFF"/>
<path d="M53.0496 41.7823L41.6966 47.4535C41.5755 47.5124 41.4457 47.5448 41.3159 47.5448C41.2697 47.5448 41.2264 47.5359 41.1832 47.5271C40.9755 48.7314 39.5275 49.7414 38.8843 50.133C38.2757 50.507 37.7392 51.087 37.5344 51.4198C37.8142 51.723 38.0824 52.1264 38.0824 52.6299C38.0824 53.3101 37.6209 53.7165 37.2489 54.0463C37.07 54.2053 36.8998 54.3554 36.7816 54.5233C36.571 54.8177 36.323 54.9385 36.0432 54.9385C35.4836 54.9385 34.7885 54.4614 33.9808 53.9079C33.6635 53.69 33.3376 53.4662 33.1011 53.3307C33.0405 53.2954 32.9828 53.2512 32.9309 53.2012C32.879 53.1511 31.6704 51.9674 31.0676 50.4363C31.0272 50.3362 30.9984 50.2331 30.9638 50.133C29.7956 50.5982 28.6678 51.0252 27.5919 51.3991C30.3003 54.1228 34.0154 55.8071 38.1084 55.8071C45.954 55.8071 52.4092 49.6236 53.0496 41.7794V41.7823Z" fill="#E1ECFF"/>
<path d="M37.9959 48.6195C39.0256 47.9864 39.4468 47.3916 39.4814 47.2179C39.4871 47.0236 39.5102 46.841 39.5391 46.6673L34.102 43.6021C33.8251 43.446 33.652 43.1457 33.6549 42.8247C33.6549 42.5008 33.8308 42.2034 34.1106 42.0532L35.1346 41.4938C35.1346 41.4938 35.1086 41.4673 35.0971 41.4526C34.9154 41.2582 34.7279 41.058 34.4827 40.8254C34.1077 40.4691 33.1501 40.4161 32.38 40.3749C31.7916 40.3425 31.232 40.313 30.7647 40.1658C30.3407 40.0333 29.0514 40.1982 27.8976 40.4485C27.8255 41.0109 27.7678 41.9325 27.9784 42.7629C28.2611 43.8729 30.5542 45.7368 31.1657 45.9959C31.8435 46.2845 32.0742 46.9765 32.2185 47.7214C32.7463 47.4977 33.2857 47.2621 33.8453 47.0147C34.2837 46.8204 34.7942 47.0265 34.9846 47.4712C35.175 47.9187 34.9731 48.4399 34.5375 48.6342C33.8741 48.9287 33.2194 49.2114 32.5732 49.4823C32.605 49.5853 32.6367 49.6884 32.6742 49.7855C33.0636 50.7749 33.8308 51.6229 34.0587 51.8614C34.327 52.0234 34.6269 52.2295 34.9442 52.4444C35.1836 52.6093 35.5326 52.8478 35.798 53.0098C35.9105 52.9008 36.0201 52.8037 36.1182 52.7153C36.1586 52.68 36.2018 52.6417 36.2451 52.6005C36.2162 52.5711 36.1787 52.5357 36.1384 52.4974C35.8384 52.2266 35.6942 51.8438 35.7317 51.4168C35.8297 50.3303 37.1739 49.126 37.9988 48.6195H37.9959Z" fill="#005BF1"/>
<path d="M23.7758 36.0405C24.5835 36.7384 25.1575 37.0358 25.4747 37.1565L25.4488 37.1123C25.0825 36.4586 24.6239 35.643 24.9844 34.8509C25.2036 34.371 25.6507 34.0648 26.3112 33.9411C28.3476 33.5465 29.6542 33.1284 30.2744 32.1567C30.8945 31.185 31.8204 30.761 32.7146 30.3488C33.3203 30.069 33.9462 29.7834 34.5606 29.3064C35.0077 28.959 35.2644 28.7352 35.4086 28.5938C35.3913 28.5821 35.374 28.5673 35.3538 28.5526C35.074 28.3436 34.5981 28.1904 34.1539 28.0933C34.0645 28.2405 33.9347 28.3936 33.7414 28.5379C33.453 28.7558 32.4175 29.33 31.7945 29.1445C31.2955 28.9943 31.1628 28.5379 31.0849 28.267C31.0532 28.161 30.9724 27.8783 30.9003 27.8194C30.9003 27.8194 30.8888 27.8194 30.8657 27.8194C30.834 27.8194 30.7792 27.8224 30.6955 27.843C30.3955 27.9166 30.0206 27.9549 29.5158 27.946C26.7698 29.91 24.7479 32.7574 23.7701 36.0405H23.7758Z" fill="#005BF1"/>
<path d="M51.2555 38.1076C51.0651 38.1989 50.8488 38.2195 50.644 38.1576L39.4381 34.8774L38.5786 35.3397L45.8444 39.2442C46.1328 39.4002 46.3116 39.7065 46.3059 40.0392C46.3001 40.3719 46.1126 40.6723 45.8213 40.8195L41.362 43.0514C41.336 43.0691 41.3072 43.0838 41.2812 43.0985C41.0678 43.2193 40.8169 43.2399 40.5861 43.1604L37.6123 42.1327L36.3287 42.8365L41.3447 45.6632L60.9557 35.8668C60.5634 35.5694 60.0327 35.3515 59.4068 35.2396C58.3742 35.0541 57.232 35.1896 56.4272 35.593C56.4272 35.593 56.4214 35.593 56.4186 35.5959L51.2555 38.1046V38.1076Z" fill="#A4C5FF"/>
<path d="M63.0931 35.7814C62.5248 34.5977 61.322 33.788 59.7039 33.4994C58.3107 33.2491 56.8051 33.4405 55.6686 34.0059L53.8976 34.8657C51.6132 28.2081 45.4002 23.4203 38.1084 23.4203C34.6962 23.4203 31.5233 24.4715 28.8755 26.2677C28.8408 26.2853 28.8091 26.303 28.7774 26.3266C27.6582 27.098 26.6429 27.999 25.7488 29.0061C25.7343 29.0237 25.7199 29.0414 25.7026 29.0591C25.5555 29.2269 25.4113 29.3977 25.27 29.5685C25.218 29.6303 25.169 29.6951 25.1171 29.7599C25.019 29.8835 24.9238 30.0072 24.8286 30.1338C24.745 30.2457 24.6613 30.3606 24.5806 30.4724C24.5287 30.5461 24.4796 30.6167 24.4277 30.6903C24.3123 30.8582 24.1998 31.026 24.0902 31.1997C24.0845 31.2086 24.0787 31.2174 24.0729 31.2292C22.374 33.9028 21.3818 37.0858 21.3818 40.5015C21.3818 44.2498 22.573 47.7185 24.5864 50.5393C21.0501 51.5964 19.1262 51.7113 18.5868 51.4786C18.6676 51.246 19.0252 50.5541 20.6117 49.1996C20.978 48.8875 21.027 48.331 20.7213 47.9541C20.4155 47.5801 19.8704 47.53 19.5012 47.8422C17.234 49.7738 16.4581 51.1341 16.9773 52.253C17.3148 52.9774 18.0907 53.3366 19.3916 53.3366C20.3607 53.3366 21.6212 53.1364 23.2105 52.7418C23.9979 52.5446 24.8517 52.3002 25.7603 52.0145C28.8206 55.4331 33.2222 57.5797 38.1055 57.5797C47.2 57.5797 54.6187 50.133 54.8264 40.896L62.6921 36.9651C63.1219 36.7502 63.2978 36.2201 63.0902 35.7844L63.0931 35.7814ZM56.4186 35.5989C56.4186 35.5989 56.4243 35.5988 56.4272 35.5959C57.232 35.1925 58.3742 35.0571 59.4068 35.2426C60.0327 35.3545 60.5634 35.5723 60.9557 35.8697L41.3447 45.6662L36.3287 42.8394L37.6123 42.1357L40.5861 43.1633C40.8169 43.2428 41.0678 43.2193 41.2812 43.1015C41.3101 43.0868 41.336 43.0691 41.362 43.0544L45.8213 40.8224C46.1126 40.6752 46.3001 40.3749 46.3059 40.0421C46.3116 39.7094 46.1328 39.4032 45.8444 39.2471L38.5786 35.3427L39.4381 34.8804L50.644 38.1606C50.8459 38.2195 51.0622 38.2018 51.2555 38.1105L56.4186 35.6018V35.5989ZM36.1355 52.4945C36.1787 52.5328 36.2134 52.5681 36.2422 52.5976C36.1989 52.6358 36.1557 52.6771 36.1153 52.7124C36.0172 52.8007 35.9076 52.8979 35.7951 53.0068C35.5298 52.8449 35.1836 52.6064 34.9413 52.4415C34.6241 52.2236 34.3241 52.0175 34.0558 51.8585C33.828 51.62 33.0607 50.772 32.6713 49.7826C32.6338 49.6854 32.5992 49.5824 32.5704 49.4793C33.2194 49.2084 33.8741 48.9257 34.5346 48.6313C34.9731 48.437 35.175 47.9158 34.9817 47.4682C34.7913 47.0206 34.2808 46.8145 33.8424 47.0118C33.2828 47.2591 32.7405 47.4947 32.2156 47.7185C32.0714 46.9735 31.8406 46.2816 31.1628 45.993C30.5513 45.7339 28.2553 43.87 27.9755 42.7599C27.765 41.9296 27.8226 41.0079 27.8948 40.4455C29.0485 40.1952 30.3378 40.0304 30.7618 40.1629C31.2291 40.3071 31.7887 40.3395 32.3771 40.3719C33.1472 40.4131 34.1049 40.4661 34.4798 40.8224C34.725 41.055 34.9125 41.2553 35.0942 41.4496C35.1057 41.4643 35.1202 41.4761 35.1317 41.4908L34.1077 42.0503C33.828 42.2034 33.652 42.5008 33.652 42.8218C33.652 43.1457 33.8222 43.443 34.0991 43.5991L39.5362 46.6644C39.5073 46.841 39.4843 47.0206 39.4785 47.215C39.4439 47.3887 39.0256 47.9835 37.993 48.6166C37.1681 49.123 35.8211 50.3273 35.7259 51.4139C35.6884 51.8408 35.8326 52.2236 36.1326 52.4945H36.1355ZM50.8055 36.3674L39.5823 33.0813C39.3689 33.0195 39.1381 33.043 38.942 33.149L36.3201 34.5565C36.0345 34.7096 35.8586 35.0099 35.8586 35.3368C35.8586 35.6636 36.0374 35.9669 36.3201 36.12L43.534 39.998L40.7938 41.3672L37.8142 40.3366C37.5863 40.2571 37.3383 40.2806 37.1277 40.3955L36.7297 40.6134C36.6114 40.5015 36.4931 40.3778 36.3518 40.2276C36.1614 40.0245 35.948 39.7948 35.6624 39.5239C34.8288 38.7318 33.577 38.6641 32.4752 38.6052C32.0137 38.5787 31.5378 38.5551 31.2695 38.4698C30.0754 38.0987 27.4506 38.7259 26.9343 38.8555C26.8708 38.8702 26.816 38.8997 26.7583 38.9262C26.9227 38.8349 27.0323 38.723 27.0987 38.6435C27.5486 38.0987 27.5111 37.2272 26.9977 36.3114L26.9516 36.2319C26.8621 36.0759 26.7352 35.8491 26.6573 35.6695C28.7283 35.2691 30.6724 34.7685 31.7281 33.1196C32.0714 32.5807 32.6425 32.3216 33.4299 31.9565C34.0904 31.6532 34.8404 31.3087 35.6105 30.7109C36.5999 29.9454 37.2979 29.3417 37.2921 28.532C37.2864 27.8018 36.6979 27.3601 36.3835 27.1245C35.3711 26.3678 33.7126 26.2264 33.528 26.2147C33.2886 26.1999 33.0521 26.2824 32.8761 26.4502C32.7002 26.6181 32.5992 26.8507 32.5992 27.098V27.1981C32.5848 27.207 32.5675 27.2158 32.5502 27.2246C32.406 26.9125 32.2358 26.677 32.0483 26.5003C33.903 25.6582 35.9538 25.187 38.1113 25.187C44.7137 25.187 50.3296 29.5685 52.3285 35.6283L50.8084 36.3674H50.8055ZM29.5187 27.946C30.0206 27.9549 30.3984 27.9166 30.6984 27.843C30.782 27.8224 30.8368 27.8194 30.8686 27.8194C30.8916 27.8194 30.9032 27.8224 30.9032 27.8194C30.9753 27.8754 31.0561 28.161 31.0878 28.267C31.1657 28.5379 31.2983 28.9943 31.7973 29.1445C32.4204 29.33 33.4559 28.7587 33.7443 28.5379C33.9376 28.3907 34.0674 28.2405 34.1568 28.0933C34.601 28.1904 35.0769 28.3406 35.3567 28.5526C35.3769 28.5673 35.3942 28.5821 35.4115 28.5938C35.2673 28.7381 35.0106 28.9619 34.5635 29.3064C33.9491 29.7805 33.3232 30.069 32.7175 30.3488C31.8233 30.761 30.8974 31.185 30.2773 32.1567C29.6571 33.1284 28.3505 33.5465 26.3141 33.9411C25.6507 34.0648 25.2036 34.371 24.9873 34.8509C24.6267 35.646 25.0825 36.4586 25.4517 37.1123L25.4776 37.1565C25.1632 37.0328 24.5864 36.7354 23.7787 36.0405C24.7565 32.7603 26.7756 29.91 29.5244 27.946H29.5187ZM23.3259 37.925C24.4133 38.7289 25.1575 38.9379 25.4921 38.9909C25.7199 39.0645 25.9218 39.094 26.0978 39.094C26.343 39.094 26.5391 39.0351 26.6948 38.9585C26.4958 39.0793 26.3487 39.2795 26.2939 39.5151C26.2766 39.5946 25.8584 41.4702 26.2997 43.2016C26.7871 45.1185 29.5591 47.1502 30.3955 47.5742C30.4619 47.7303 30.5282 48.0983 30.5772 48.3957C29.0024 49.0347 27.589 49.5529 26.3372 49.9769C24.3152 47.3681 23.1067 44.0761 23.1067 40.4985C23.1067 39.6211 23.1845 38.7613 23.323 37.925H23.3259ZM30.9638 50.1359C30.9955 50.2361 31.0272 50.3391 31.0676 50.4392C31.6704 51.9704 32.879 53.157 32.9309 53.2041C32.9828 53.2542 33.0405 53.2954 33.1011 53.3337C33.3347 53.4691 33.6635 53.6929 33.9808 53.9108C34.7885 54.4644 35.4836 54.9414 36.0432 54.9414C36.3258 54.9414 36.5739 54.8207 36.7816 54.5262C36.9027 54.3584 37.07 54.2082 37.2489 54.0492C37.6181 53.7224 38.0796 53.3131 38.0824 52.6329C38.0824 52.1294 37.8171 51.723 37.5344 51.4227C37.7421 51.09 38.2757 50.5099 38.8843 50.1359C39.5275 49.7414 40.9755 48.7344 41.1832 47.53C41.2264 47.5359 41.2726 47.5477 41.3159 47.5477C41.4457 47.5477 41.5755 47.5183 41.6966 47.4564L53.0496 41.7853C52.4092 49.6295 45.954 55.813 38.1084 55.813C34.0154 55.813 30.3003 54.1287 27.5919 51.405C28.6678 51.0281 29.7956 50.6041 30.9638 50.1389V50.1359Z" fill="#005BF1"/>
</svg>
