<svg width="80" height="81" viewBox="0 0 80 81" fill="none" xmlns="http://www.w3.org/2000/svg">
<rect y="0.5" width="80" height="80" rx="20" fill="#F8F8F8"/>
<path d="M47.865 42.9277V54.2899H53.2737C53.689 52.9296 54.9607 51.9374 56.4609 51.9374C57.9612 51.9374 59.2361 52.9296 59.6482 54.2899H60.2341V41.417H47.8618V42.9309L47.865 42.9277Z" fill="#A4C5FF"/>
<path d="M61.2032 39.4934H46.8992C46.3647 39.4934 45.9333 39.9223 45.9333 40.4536V41.9675H43.2C42.0474 41.9675 39.517 43.2413 38.1648 45.2385C37.4307 46.3235 36.9929 47.4598 36.9929 48.2727V55.2469C36.9929 55.7782 37.4243 56.2071 37.9587 56.2071H40.0836C40.4989 57.5673 41.7706 58.5595 43.2708 58.5595C44.7711 58.5595 46.0428 57.5673 46.4581 56.2071H53.2705C53.6858 57.5673 54.9574 58.5595 56.4577 58.5595C57.958 58.5595 59.2329 57.5673 59.645 56.2071H61.1967C61.7312 56.2071 62.1626 55.7782 62.1626 55.2469V40.4536C62.1626 39.9223 61.7312 39.4934 61.1967 39.4934H61.2032ZM43.2741 56.6424C42.5014 56.6424 41.8736 56.0182 41.8736 55.2501C41.8736 54.4819 42.5014 53.8578 43.2741 53.8578C44.0467 53.8578 44.6745 54.4819 44.6745 55.2501C44.6745 56.0182 44.0467 56.6424 43.2741 56.6424ZM45.9333 53.2593C45.3248 52.4559 44.3622 51.9342 43.2741 51.9342C41.7738 51.9342 40.5021 52.9264 40.0868 54.2867H38.9278V48.2727C38.9278 47.9847 39.1532 47.2229 39.7713 46.3075C40.824 44.752 42.7332 43.8975 43.2032 43.8847H45.9365V53.2561L45.9333 53.2593ZM56.4609 56.6424C55.6883 56.6424 55.0605 56.0182 55.0605 55.2501C55.0605 54.4819 55.6883 53.8578 56.4609 53.8578C57.2336 53.8578 57.8614 54.4819 57.8614 55.2501C57.8614 56.0182 57.2336 56.6424 56.4609 56.6424ZM59.6514 54.2899C59.2361 52.9296 57.9644 51.9374 56.4641 51.9374C54.9639 51.9374 53.6922 52.9296 53.2769 54.2899H47.8682V41.417H60.2406V54.2899H59.6514Z" fill="#005BF1"/>
<path d="M39.7681 46.3107C39.1499 47.2261 38.9246 47.9879 38.9246 48.2759V54.2899H40.0836C40.4989 52.9296 41.7706 51.9374 43.2708 51.9374C44.3558 51.9374 45.3216 52.4591 45.9301 53.2625V43.8911H43.1968C42.7267 43.9039 40.8176 44.7584 39.7648 46.3139L39.7681 46.3107ZM44.858 48.7688C44.858 49.3001 44.4266 49.729 43.8922 49.729H40.9657C40.4313 49.729 39.9999 49.3001 39.9999 48.7688C39.9999 48.2375 40.4313 47.8086 40.9657 47.8086H43.8922C44.4266 47.8086 44.858 48.2375 44.858 48.7688Z" fill="#E1ECFF"/>
<path d="M39.9999 48.7688C39.9999 49.3001 40.4313 49.729 40.9657 49.729H43.8922C44.4266 49.729 44.858 49.3001 44.858 48.7688C44.858 48.2375 44.4266 47.8086 43.8922 47.8086H40.9657C40.4313 47.8086 39.9999 48.2375 39.9999 48.7688Z" fill="#005BF1"/>
<path d="M43.2741 53.8546C42.5014 53.8546 41.8736 54.4787 41.8736 55.2469C41.8736 56.015 42.5014 56.6392 43.2741 56.6392C44.0467 56.6392 44.6745 56.015 44.6745 55.2469C44.6745 54.4787 44.0467 53.8546 43.2741 53.8546Z" fill="#E1ECFF"/>
<path d="M56.4609 53.8546C55.6883 53.8546 55.0605 54.4787 55.0605 55.2469C55.0605 56.015 55.6883 56.6392 56.4609 56.6392C57.2336 56.6392 57.8614 56.015 57.8614 55.2469C57.8614 54.4787 57.2336 53.8546 56.4609 53.8546Z" fill="#E1ECFF"/>
<path d="M28.3551 51.979L32.3826 43.9743C32.3826 43.9743 35.5828 37.6018 36.0399 36.6993C36.0464 36.6865 36.0528 36.6769 36.0593 36.6641C36.0657 36.6545 36.0689 36.6448 36.0754 36.6352L36.0882 36.6064C36.4102 35.9407 36.6452 35.2334 36.7869 34.5036C36.8899 33.9595 36.9446 33.4186 36.9446 32.9001C36.9446 28.192 33.0909 24.3641 28.3583 24.3641C23.6257 24.3641 19.7688 28.192 19.7688 32.8969C19.7688 33.4154 19.8203 33.9563 19.9266 34.5036C20.065 35.2206 20.2968 35.9215 20.6155 36.584C20.6188 36.5936 20.6252 36.6032 20.6284 36.6128C20.6316 36.6224 20.6349 36.6288 20.6413 36.6417L20.6735 36.6961C20.6735 36.6961 20.6799 36.7121 20.6864 36.7185C21.2401 37.8067 24.3308 43.9743 24.3308 43.9743L28.3583 51.979H28.3551ZM21.9162 32.7785C21.9162 29.2482 24.8041 26.3772 28.3551 26.3772C31.9062 26.3772 34.794 29.2482 34.794 32.7785C34.794 36.3088 31.9062 39.1797 28.3551 39.1797C24.8041 39.1797 21.9162 36.3088 21.9162 32.7785Z" fill="#A4C5FF"/>
<path d="M27.4923 54.5555C27.6565 54.882 27.9913 55.0869 28.3551 55.0869C28.7189 55.0869 29.0537 54.882 29.2179 54.5555L34.1083 44.8321C34.1083 44.8321 37.1249 38.8181 37.7173 37.653L37.7302 37.6274C37.7463 37.5954 37.7624 37.5666 37.7752 37.541C37.7849 37.525 37.7913 37.5122 37.7945 37.5026L37.8235 37.445C38.2227 36.6256 38.5093 35.7551 38.6831 34.8621C38.8087 34.1996 38.8731 33.537 38.8731 32.8969C38.8763 27.1326 34.1566 22.4405 28.3551 22.4405C22.5537 22.4405 17.8372 27.1326 17.8372 32.8969C17.8372 33.537 17.9015 34.1964 18.0271 34.8621C18.1945 35.7391 18.4778 36.5968 18.8706 37.4098C18.8706 37.4098 18.8706 37.413 18.8706 37.4162C18.8706 37.4162 18.8835 37.445 18.8899 37.4578C18.8899 37.4578 18.8899 37.4642 18.8931 37.4642C18.9092 37.4994 18.9286 37.5346 18.9479 37.5666C18.9575 37.5858 18.9672 37.605 18.9801 37.6274L19.009 37.6883C19.6755 39.0069 22.5987 44.8353 22.5987 44.8385L27.4891 54.562L27.4923 54.5555ZM20.6735 36.6961L20.6413 36.6417C20.6413 36.6417 20.6316 36.6224 20.6284 36.6128C20.6252 36.6032 20.6188 36.5936 20.6155 36.584C20.2968 35.9215 20.065 35.2206 19.9266 34.5036C19.8236 33.9563 19.7688 33.4186 19.7688 32.8969C19.7688 28.1888 23.6225 24.3609 28.3551 24.3609C33.0877 24.3609 36.9414 28.192 36.9414 32.8969C36.9414 33.4154 36.8899 33.9563 36.7836 34.5004C36.6452 35.2302 36.407 35.9375 36.085 36.6032L36.0721 36.632C36.0657 36.6417 36.0625 36.6513 36.056 36.6609C36.0496 36.6737 36.0432 36.6833 36.0367 36.6961C35.5796 37.5986 32.3794 43.9711 32.3794 43.9711L28.3519 51.9758L24.3244 43.9711C24.3244 43.9711 21.2305 37.8035 20.6799 36.7153C20.6767 36.7089 20.6735 36.6993 20.6671 36.6929L20.6735 36.6961Z" fill="#005BF1"/>
<path d="M32.8623 32.7785C32.8623 30.3076 30.8405 28.2976 28.3551 28.2976C25.8697 28.2976 23.8479 30.3076 23.8479 32.7785C23.8479 35.2494 25.8697 37.2594 28.3551 37.2594C30.8405 37.2594 32.8623 35.2494 32.8623 32.7785Z" fill="#E1ECFF"/>
<path d="M34.794 32.7785C34.794 29.2482 31.9062 26.3772 28.3551 26.3772C24.8041 26.3772 21.9162 29.2482 21.9162 32.7785C21.9162 36.3088 24.8041 39.1797 28.3551 39.1797C31.9062 39.1797 34.794 36.3088 34.794 32.7785ZM23.8479 32.7785C23.8479 30.3076 25.8697 28.2976 28.3551 28.2976C30.8405 28.2976 32.8623 30.3076 32.8623 32.7785C32.8623 35.2494 30.8405 37.2594 28.3551 37.2594C25.8697 37.2594 23.8479 35.2494 23.8479 32.7785Z" fill="#005BF1"/>
<path d="M34.3787 56.3479H22.3347C21.8003 56.3479 21.3689 56.7768 21.3689 57.3081C21.3689 57.8394 21.8003 58.2683 22.3347 58.2683H34.3787C34.9131 58.2683 35.3445 57.8394 35.3445 57.3081C35.3445 56.7768 34.9131 56.3479 34.3787 56.3479Z" fill="#005BF1"/>
</svg>
