<svg width="33" height="33" viewBox="0 0 33 33" fill="none" xmlns="http://www.w3.org/2000/svg">
<g clip-path="url(#clip0_422_2788)">
<path d="M28.5728 6.95267H5.02992C3.95815 6.95267 3.0893 7.82152 3.0893 8.89329V27.7513C3.0893 28.823 3.95815 29.6919 5.02992 29.6919H28.5728C29.6446 29.6919 30.5134 28.823 30.5134 27.7513V8.89329C30.5134 7.82152 29.6446 6.95267 28.5728 6.95267Z" fill="#005BF1"/>
<path d="M25.5077 29.6919V23.219C25.5077 20.9887 23.6823 19.1633 21.452 19.1633C19.2217 19.1633 17.3963 20.9887 17.3963 23.219V29.6919H25.5108H25.5077Z" fill="#A4C5FF"/>
<path d="M0.799805 5.28928V11.4787C0.799805 13.2355 2.2358 14.6715 3.99264 14.6715C5.74948 14.6715 7.18548 13.2355 7.18548 11.4787V3.30817H2.78092C1.68757 3.30817 0.799805 4.19593 0.799805 5.28928Z" fill="#A4C5FF"/>
<path d="M7.20417 3.30817V11.4787C7.20417 13.2355 8.64016 14.6715 10.397 14.6715C12.1538 14.6715 13.5898 13.2355 13.5898 11.4787V3.30817H7.20417Z" fill="#E1ECFF"/>
<path d="M13.6085 3.30817V11.4787C13.6085 13.2355 15.0445 14.6715 16.8014 14.6715C18.5582 14.6715 19.9942 13.2355 19.9942 11.4787V3.30817H13.6085Z" fill="#A4C5FF"/>
<path d="M20.0098 3.30817V11.4787C20.0098 13.2355 21.4458 14.6715 23.2026 14.6715C24.9594 14.6715 26.3954 13.2355 26.3954 11.4787V3.30817H20.0098Z" fill="#E1ECFF"/>
<path d="M26.4141 3.30817V11.4787C26.4141 13.2355 27.8501 14.6715 29.607 14.6715C31.3638 14.6715 32.7998 13.2355 32.7998 11.4787V5.28928C32.7998 4.19282 31.912 3.30817 30.8187 3.30817H26.4141Z" fill="#A4C5FF"/>
</g>
<defs>
<clipPath id="clip0_422_2788">
<rect width="32" height="32" fill="white" transform="translate(0.799805 0.5)"/>
</clipPath>
</defs>
</svg>
