<svg width="80" height="81" viewBox="0 0 80 81" fill="none" xmlns="http://www.w3.org/2000/svg">
<rect y="0.5" width="80" height="80" rx="20" fill="#F8F8F8"/>
<path d="M45.5905 36.4387C45.0692 36.4387 44.6483 36.0196 44.6483 35.5004V29.0667C44.6483 26.5114 42.5629 24.4346 39.9969 24.4346C37.4309 24.4346 35.3455 26.5114 35.3455 29.0667V35.5004C35.3455 36.0196 34.9246 36.4387 34.4033 36.4387C33.8819 36.4387 33.4611 36.0196 33.4611 35.5004V29.0667C33.4611 25.4793 36.3945 22.558 39.9969 22.558C43.5993 22.558 46.5328 25.4793 46.5328 29.0667V35.5004C46.5328 36.0196 46.1119 36.4387 45.5905 36.4387Z" fill="#005BF1"/>
<path d="M53.4894 31.4H26.5106C25.9902 31.4 25.5684 31.8201 25.5684 32.3383V57.5037C25.5684 58.0219 25.9902 58.442 26.5106 58.442H53.4894C54.0098 58.442 54.4316 58.0219 54.4316 57.5037V32.3383C54.4316 31.8201 54.0098 31.4 53.4894 31.4Z" fill="#005BF1"/>
<path d="M52.5471 33.2766H27.4528V56.5654H52.5471V33.2766Z" fill="#E1ECFF"/>
<path d="M53.4863 48.8525H26.5106V57.5006H53.4863V48.8525Z" fill="#A4C5FF"/>
<path d="M53.4894 58.442H26.5106C25.9892 58.442 25.5684 58.0229 25.5684 57.5037V48.8557C25.5684 48.3365 25.9892 47.9173 26.5106 47.9173H53.4894C54.0108 47.9173 54.4316 48.3365 54.4316 48.8557V57.5037C54.4316 58.0229 54.0108 58.442 53.4894 58.442ZM27.4528 56.5654H52.5472V49.794H27.4528V56.5654Z" fill="#005BF1"/>
</svg>
