<svg width="33" height="33" viewBox="0 0 33 33" fill="none" xmlns="http://www.w3.org/2000/svg">
<path d="M24.9808 1.5H6.75716C5.33636 1.5 3.97374 2.06441 2.96909 3.06907C1.96443 4.07372 1.40002 5.43634 1.40002 6.85713V30.4285C1.40002 30.8144 1.60766 31.1706 1.94356 31.3609C2.27946 31.5512 2.6917 31.5458 3.0227 31.3472L7.82858 28.4637L12.6345 31.3472C12.9738 31.5509 13.3977 31.5509 13.737 31.3472L18.5429 28.4637L23.3488 31.3472C23.6797 31.5458 24.092 31.5512 24.4278 31.3609C24.7638 31.1706 24.9714 30.8144 24.9714 30.4285L24.9808 1.5Z" fill="#005BF1"/>
<path d="M30.3287 14.3571L24.9808 14.3571V1.5H27.1144C28.251 1.5 29.3409 1.95153 30.1448 2.75525C30.9487 3.55898 31.4001 4.64907 31.4001 5.78571V13.2857C31.4001 13.8774 30.9204 14.3571 30.3287 14.3571Z" fill="#A4C5FF"/>
<path d="M14.4826 8.94421C14.4826 8.22797 13.9019 7.64734 13.1857 7.64734C12.4695 7.64734 11.8888 8.22797 11.8888 8.94421V9.82694C10.269 9.99884 9.00696 11.3696 9.00696 13.035C9.00696 14.5512 10.0626 15.8627 11.5438 16.1867L14.091 16.7439C14.4874 16.8307 14.7708 17.1824 14.7708 17.5892C14.7708 18.0673 14.3831 18.4545 13.9062 18.4545H12.4653C12.0909 18.4545 11.7689 18.2158 11.6496 17.8783C11.4109 17.203 10.6699 16.849 9.99465 17.0877C9.31935 17.3264 8.96541 18.0673 9.20408 18.7426C9.61644 19.9093 10.6378 20.7906 11.8888 21.0005V21.9129C11.8888 22.6291 12.4695 23.2098 13.1857 23.2098C13.9019 23.2098 14.4826 22.6291 14.4826 21.9129V21.0004C16.1186 20.7259 17.3645 19.3023 17.3645 17.5892C17.3645 15.9644 16.2334 14.5575 14.6453 14.2101L12.098 13.6529C11.8077 13.5894 11.6007 13.3323 11.6007 13.035C11.6007 12.6857 11.8839 12.4025 12.2332 12.4025H13.9062C14.1622 12.4025 14.3908 12.5121 14.551 12.691C14.6262 12.7751 14.6845 12.8728 14.7219 12.9788C14.9606 13.6541 15.7016 14.008 16.3768 13.7694C17.0521 13.5307 17.4061 12.7897 17.1674 12.1144C17.0151 11.6835 16.7805 11.293 16.4836 10.9612C15.9733 10.391 15.2732 9.98962 14.4826 9.85672V8.94421Z" fill="white"/>
</svg>
