<svg width="70" height="23" viewBox="0 0 70 23" fill="none" xmlns="http://www.w3.org/2000/svg">
<rect width="70" height="23" rx="4" fill="#CFE9FF"/>
<path d="M13.5611 17.1589C12.5789 17.1589 11.693 16.9326 10.9033 16.48C10.1137 16.0274 9.49259 15.4063 9.04 14.6167C8.58741 13.8174 8.36111 12.9267 8.36111 11.9444C8.36111 10.9622 8.58741 10.0763 9.04 9.28667C9.49259 8.48741 10.1137 7.86148 10.9033 7.40889C11.693 6.9563 12.5789 6.73 13.5611 6.73C14.5433 6.73 15.4293 6.9563 16.2189 7.40889C17.0181 7.86148 17.6441 8.48259 18.0967 9.27222C18.5493 10.0619 18.7756 10.9526 18.7756 11.9444C18.7756 12.9363 18.5493 13.827 18.0967 14.6167C17.6441 15.4063 17.0181 16.0274 16.2189 16.48C15.4293 16.9326 14.5433 17.1589 13.5611 17.1589ZM13.5611 15.4111C14.1774 15.4111 14.7311 15.2667 15.2222 14.9778C15.723 14.6793 16.113 14.2652 16.3922 13.7356C16.6811 13.2059 16.8256 12.6089 16.8256 11.9444C16.8256 11.28 16.6811 10.683 16.3922 10.1533C16.113 9.6237 15.723 9.21444 15.2222 8.92555C14.7311 8.62704 14.1774 8.47778 13.5611 8.47778C12.9544 8.47778 12.4007 8.62704 11.9 8.92555C11.4089 9.21444 11.0189 9.6237 10.73 10.1533C10.4507 10.683 10.3111 11.28 10.3111 11.9444C10.3111 12.6089 10.4507 13.2059 10.73 13.7356C11.0189 14.2652 11.4089 14.6793 11.9 14.9778C12.4007 15.2667 12.9544 15.4111 13.5611 15.4111ZM23.9871 6.88889C24.8249 6.88889 25.5519 7.03333 26.1682 7.32222C26.7942 7.61111 27.2708 8.03 27.5982 8.57889C27.9353 9.11815 28.1038 9.75852 28.1038 10.5C28.1038 11.2415 27.9353 11.8867 27.5982 12.4356C27.2708 12.9748 26.7942 13.3889 26.1682 13.6778C25.5519 13.9667 24.8249 14.1111 23.9871 14.1111H21.9071V17H19.9716V6.88889H23.9871ZM23.886 12.4356C24.6275 12.4356 25.1908 12.267 25.576 11.93C25.9612 11.593 26.1538 11.1163 26.1538 10.5C26.1538 9.8837 25.9612 9.40704 25.576 9.07C25.1908 8.73296 24.6275 8.56444 23.886 8.56444H21.9071V12.4356H23.886ZM27.919 8.56444V6.88889H36.1379V8.56444H33.0034V17H31.0679V8.56444H27.919ZM38.8055 6.88889V17H36.8699V6.88889H38.8055ZM45.2618 17.1589C44.2796 17.1589 43.3937 16.9326 42.604 16.48C41.8144 16.0274 41.1933 15.4063 40.7407 14.6167C40.2881 13.8174 40.0618 12.9267 40.0618 11.9444C40.0618 10.9622 40.2881 10.0763 40.7407 9.28667C41.1933 8.48741 41.8144 7.86148 42.604 7.40889C43.3937 6.9563 44.2796 6.73 45.2618 6.73C46.244 6.73 47.13 6.9563 47.9196 7.40889C48.7189 7.86148 49.3448 8.48259 49.7974 9.27222C50.25 10.0619 50.4763 10.9526 50.4763 11.9444C50.4763 12.9363 50.25 13.827 49.7974 14.6167C49.3448 15.4063 48.7189 16.0274 47.9196 16.48C47.13 16.9326 46.244 17.1589 45.2618 17.1589ZM45.2618 15.4111C45.8781 15.4111 46.4318 15.2667 46.9229 14.9778C47.4237 14.6793 47.8137 14.2652 48.0929 13.7356C48.3818 13.2059 48.5263 12.6089 48.5263 11.9444C48.5263 11.28 48.3818 10.683 48.0929 10.1533C47.8137 9.6237 47.4237 9.21444 46.9229 8.92555C46.4318 8.62704 45.8781 8.47778 45.2618 8.47778C44.6551 8.47778 44.1014 8.62704 43.6007 8.92555C43.1096 9.21444 42.7196 9.6237 42.4307 10.1533C42.1514 10.683 42.0118 11.28 42.0118 11.9444C42.0118 12.6089 42.1514 13.2059 42.4307 13.7356C42.7196 14.2652 43.1096 14.6793 43.6007 14.9778C44.1014 15.2667 44.6551 15.4111 45.2618 15.4111ZM60.3534 17H58.7645L53.6367 10.3556V17H51.73V6.88889H53.3189L58.4467 13.5333V6.88889H60.3534V17Z" fill="#289CFC"/>
</svg>
