<svg width="15" height="16" viewBox="0 0 15 16" fill="none" xmlns="http://www.w3.org/2000/svg">
<path d="M8.77778 6.44444V11.8889M5.66667 6.44444V11.8889M2.55556 3.33333V12.5111C2.55556 13.3823 2.55556 13.8176 2.7251 14.1504C2.87424 14.443 3.11203 14.6815 3.40473 14.8306C3.73716 15 4.17255 15 5.04204 15H9.4024C10.2719 15 10.7067 15 11.0391 14.8306C11.3318 14.6815 11.5704 14.443 11.7195 14.1504C11.8889 13.8179 11.8889 13.383 11.8889 12.5135V3.33333M2.55556 3.33333H4.11111M2.55556 3.33333H1M4.11111 3.33333H10.3333M4.11111 3.33333C4.11111 2.60854 4.11111 2.24632 4.22952 1.96045C4.3874 1.57929 4.69003 1.27629 5.07118 1.11841C5.35705 1 5.71965 1 6.44444 1H8C8.7248 1 9.0872 1 9.37306 1.11841C9.75422 1.27629 10.057 1.57929 10.2148 1.96045C10.3333 2.24631 10.3333 2.60854 10.3333 3.33333M10.3333 3.33333H11.8889M11.8889 3.33333H13.4444" stroke="#333333" stroke-width="1.5" stroke-linecap="round" stroke-linejoin="round"/>
</svg>
