<?xml version="1.0" encoding="UTF-8"?>
<svg xmlns="http://www.w3.org/2000/svg" version="1.1" viewBox="0 0 24 24">
  <defs>
    <style>
      .cls-1 {
        fill: none;
        stroke: #144bff;
        stroke-linecap: round;
        stroke-linejoin: round;
        stroke-width: 2px;
      }
    </style>
  </defs>
  <!-- Generator: Adobe Illustrator 28.8.0, SVG Export Plug-In . SVG Version: 1.2.0 Build 43)  -->
  <g>
    <g id="Layer_1">
      <path class="cls-1" d="M8,12l3,3,5-6M4,16.8V7.2c0-1.1,0-1.7.2-2.1.2-.4.5-.7.9-.9.4-.2,1-.2,2.1-.2h9.6c1.1,0,1.7,0,2.1.2.4.2.7.5.9.9.2.4.2,1,.2,2.1v9.6c0,1.1,0,1.7-.2,2.1-.2.4-.5.7-.9.9-.4.2-1,.2-2.1.2H7.2c-1.1,0-1.7,0-2.1-.2-.4-.2-.7-.5-.9-.9-.2-.4-.2-1-.2-2.1Z"/>
    </g>
  </g>
</svg>