<svg width="86" height="23" viewBox="0 0 86 23" fill="none" xmlns="http://www.w3.org/2000/svg">
<rect width="86" height="23" rx="4" fill="#FF3838"/>
<path d="M12.0589 17.1589C11.3174 17.1589 10.5952 17.0481 9.89222 16.8267C9.19889 16.5956 8.64519 16.3019 8.23111 15.9456L8.89556 14.4144C9.3 14.7419 9.7863 15.0067 10.3544 15.2089C10.9226 15.4111 11.4956 15.5122 12.0733 15.5122C12.757 15.5122 13.2626 15.3967 13.59 15.1656C13.927 14.9344 14.0956 14.6311 14.0956 14.2556C14.0956 13.9667 13.9993 13.7356 13.8067 13.5622C13.6141 13.3889 13.3733 13.2541 13.0844 13.1578C12.8052 13.0519 12.4007 12.9315 11.8711 12.7967C11.1489 12.6233 10.5567 12.4452 10.0944 12.2622C9.64185 12.0696 9.25185 11.7759 8.92444 11.3811C8.59704 10.9863 8.43333 10.4567 8.43333 9.79222C8.43333 9.22407 8.57778 8.70889 8.86667 8.24667C9.16519 7.78444 9.60815 7.41852 10.1956 7.14889C10.783 6.86963 11.5004 6.73 12.3478 6.73C12.9544 6.73 13.5419 6.81185 14.11 6.97556C14.6878 7.12963 15.1885 7.35111 15.6122 7.64L15.0056 9.18556C14.5819 8.91593 14.1389 8.7137 13.6767 8.57889C13.2241 8.44407 12.7811 8.37667 12.3478 8.37667C11.6737 8.37667 11.173 8.50185 10.8456 8.75222C10.5181 8.99296 10.3544 9.30593 10.3544 9.69111C10.3544 9.97037 10.4507 10.2015 10.6433 10.3844C10.8359 10.5578 11.0815 10.6974 11.38 10.8033C11.6785 10.8996 12.083 11.0104 12.5933 11.1356C13.3348 11.3185 13.927 11.5015 14.37 11.6844C14.8226 11.8674 15.2126 12.1563 15.54 12.5511C15.8674 12.9363 16.0311 13.4563 16.0311 14.1111C16.0311 14.6696 15.8819 15.18 15.5833 15.6422C15.2848 16.1044 14.837 16.4752 14.24 16.7544C13.643 17.0241 12.9159 17.1589 12.0589 17.1589ZM21.6831 17.1589C20.7008 17.1589 19.8149 16.9326 19.0253 16.48C18.2357 16.0274 17.6145 15.4063 17.162 14.6167C16.7094 13.8174 16.4831 12.9267 16.4831 11.9444C16.4831 10.9622 16.7094 10.0763 17.162 9.28667C17.6145 8.48741 18.2357 7.86148 19.0253 7.40889C19.8149 6.9563 20.7008 6.73 21.6831 6.73C22.6653 6.73 23.5512 6.9563 24.3408 7.40889C25.1401 7.86148 25.766 8.48259 26.2186 9.27222C26.6712 10.0619 26.8975 10.9526 26.8975 11.9444C26.8975 12.9363 26.6712 13.827 26.2186 14.6167C25.766 15.4063 25.1401 16.0274 24.3408 16.48C23.5512 16.9326 22.6653 17.1589 21.6831 17.1589ZM21.6831 15.4111C22.2994 15.4111 22.8531 15.2667 23.3442 14.9778C23.8449 14.6793 24.2349 14.2652 24.5142 13.7356C24.8031 13.2059 24.9475 12.6089 24.9475 11.9444C24.9475 11.28 24.8031 10.683 24.5142 10.1533C24.2349 9.6237 23.8449 9.21444 23.3442 8.92555C22.8531 8.62704 22.2994 8.47778 21.6831 8.47778C21.0764 8.47778 20.5227 8.62704 20.022 8.92555C19.5308 9.21444 19.1408 9.6237 18.852 10.1533C18.5727 10.683 18.4331 11.28 18.4331 11.9444C18.4331 12.6089 18.5727 13.2059 18.852 13.7356C19.1408 14.2652 19.5308 14.6793 20.022 14.9778C20.5227 15.2667 21.0764 15.4111 21.6831 15.4111ZM30.0869 6.88889V15.3244H35.0269V17H28.1513V6.88889H30.0869ZM40.0305 6.88889C41.0705 6.88889 41.9853 7.10074 42.7749 7.52444C43.5742 7.93852 44.1953 8.53074 44.6383 9.30111C45.0812 10.0619 45.3027 10.943 45.3027 11.9444C45.3027 12.9459 45.0812 13.8319 44.6383 14.6022C44.1953 15.363 43.5742 15.9552 42.7749 16.3789C41.9853 16.793 41.0705 17 40.0305 17H35.7838V6.88889H40.0305ZM39.9294 15.31C40.6131 15.31 41.2101 15.1752 41.7205 14.9056C42.2405 14.6263 42.6401 14.2315 42.9194 13.7211C43.1986 13.2107 43.3383 12.6185 43.3383 11.9444C43.3383 11.2704 43.1986 10.6781 42.9194 10.1678C42.6401 9.65741 42.2405 9.26259 41.7205 8.98333C41.2101 8.70407 40.6131 8.56444 39.9294 8.56444H37.7194V15.31H39.9294ZM53.8154 17.1589C52.8332 17.1589 51.9473 16.9326 51.1576 16.48C50.368 16.0274 49.7469 15.4063 49.2943 14.6167C48.8417 13.8174 48.6154 12.9267 48.6154 11.9444C48.6154 10.9622 48.8417 10.0763 49.2943 9.28667C49.7469 8.48741 50.368 7.86148 51.1576 7.40889C51.9473 6.9563 52.8332 6.73 53.8154 6.73C54.7976 6.73 55.6836 6.9563 56.4732 7.40889C57.2724 7.86148 57.8984 8.48259 58.351 9.27222C58.8036 10.0619 59.0299 10.9526 59.0299 11.9444C59.0299 12.9363 58.8036 13.827 58.351 14.6167C57.8984 15.4063 57.2724 16.0274 56.4732 16.48C55.6836 16.9326 54.7976 17.1589 53.8154 17.1589ZM53.8154 15.4111C54.4317 15.4111 54.9854 15.2667 55.4765 14.9778C55.9773 14.6793 56.3673 14.2652 56.6465 13.7356C56.9354 13.2059 57.0799 12.6089 57.0799 11.9444C57.0799 11.28 56.9354 10.683 56.6465 10.1533C56.3673 9.6237 55.9773 9.21444 55.4765 8.92555C54.9854 8.62704 54.4317 8.47778 53.8154 8.47778C53.2087 8.47778 52.655 8.62704 52.1543 8.92555C51.6632 9.21444 51.2732 9.6237 50.9843 10.1533C50.705 10.683 50.5654 11.28 50.5654 11.9444C50.5654 12.6089 50.705 13.2059 50.9843 13.7356C51.2732 14.2652 51.6632 14.6793 52.1543 14.9778C52.655 15.2667 53.2087 15.4111 53.8154 15.4111ZM64.4292 17.1589C63.0811 17.1589 62.0314 16.7641 61.2803 15.9744C60.5388 15.1848 60.1681 14.0533 60.1681 12.58V6.88889H62.1036V12.5078C62.1036 14.4433 62.8836 15.4111 64.4436 15.4111C65.994 15.4111 66.7692 14.4433 66.7692 12.5078V6.88889H68.6759V12.58C68.6759 14.0533 68.3003 15.1848 67.5492 15.9744C66.8077 16.7641 65.7677 17.1589 64.4292 17.1589ZM69.3159 8.56444V6.88889H77.5348V8.56444H74.4003V17H72.4648V8.56444H69.3159Z" fill="#FFD6D6"/>
</svg>
