<svg width="51" height="23" viewBox="0 0 51 23" fill="none" xmlns="http://www.w3.org/2000/svg">
<rect width="51" height="23" rx="4" fill="#F4E8FF"/>
<path d="M12.0589 17.1589C11.3174 17.1589 10.5952 17.0481 9.89222 16.8267C9.19889 16.5956 8.64519 16.3019 8.23111 15.9456L8.89556 14.4144C9.3 14.7419 9.7863 15.0067 10.3544 15.2089C10.9226 15.4111 11.4956 15.5122 12.0733 15.5122C12.757 15.5122 13.2626 15.3967 13.59 15.1656C13.927 14.9344 14.0956 14.6311 14.0956 14.2556C14.0956 13.9667 13.9993 13.7356 13.8067 13.5622C13.6141 13.3889 13.3733 13.2541 13.0844 13.1578C12.8052 13.0519 12.4007 12.9315 11.8711 12.7967C11.1489 12.6233 10.5567 12.4452 10.0944 12.2622C9.64185 12.0696 9.25185 11.7759 8.92444 11.3811C8.59704 10.9863 8.43333 10.4567 8.43333 9.79222C8.43333 9.22407 8.57778 8.70889 8.86667 8.24667C9.16519 7.78444 9.60815 7.41852 10.1956 7.14889C10.783 6.86963 11.5004 6.73 12.3478 6.73C12.9544 6.73 13.5419 6.81185 14.11 6.97556C14.6878 7.12963 15.1885 7.35111 15.6122 7.64L15.0056 9.18556C14.5819 8.91593 14.1389 8.7137 13.6767 8.57889C13.2241 8.44407 12.7811 8.37667 12.3478 8.37667C11.6737 8.37667 11.173 8.50185 10.8456 8.75222C10.5181 8.99296 10.3544 9.30593 10.3544 9.69111C10.3544 9.97037 10.4507 10.2015 10.6433 10.3844C10.8359 10.5578 11.0815 10.6974 11.38 10.8033C11.6785 10.8996 12.083 11.0104 12.5933 11.1356C13.3348 11.3185 13.927 11.5015 14.37 11.6844C14.8226 11.8674 15.2126 12.1563 15.54 12.5511C15.8674 12.9363 16.0311 13.4563 16.0311 14.1111C16.0311 14.6696 15.8819 15.18 15.5833 15.6422C15.2848 16.1044 14.837 16.4752 14.24 16.7544C13.643 17.0241 12.9159 17.1589 12.0589 17.1589ZM18.722 14.7033L17.7975 17H15.8042L20.1231 6.88889H22.0297L26.3631 17H24.3264L23.402 14.7033H18.722ZM21.0764 8.91111L19.3431 13.1433H22.7808L21.0764 8.91111ZM28.8808 6.88889V15.3244H33.8208V17H26.9452V6.88889H28.8808ZM41.8578 17H34.5778V6.88889H41.67V8.53556H36.4989V11.0633H41.0778V12.6667H36.4989V15.3533H41.8578V17Z" fill="#A862E8"/>
</svg>
