<svg width="46" height="20" viewBox="0 0 46 20" fill="none" xmlns="http://www.w3.org/2000/svg">
<rect width="46" height="20" rx="4" fill="url(#paint0_linear_400_5695)"/>
<path d="M13.4583 9.44444C14.0139 9.61111 14.4444 9.90278 14.75 10.3194C15.0648 10.7361 15.2222 11.25 15.2222 11.8611C15.2222 12.7037 14.912 13.3565 14.2917 13.8194C13.6713 14.2731 12.7639 14.5 11.5694 14.5H6.93056V4.77778H11.3056C12.4074 4.77778 13.2546 5.00463 13.8472 5.45833C14.4491 5.90278 14.75 6.51389 14.75 7.29167C14.75 7.79167 14.6343 8.22685 14.4028 8.59722C14.1806 8.96759 13.8657 9.25 13.4583 9.44444ZM8.77778 8.86111H11.0972C11.6806 8.86111 12.1204 8.75 12.4167 8.52778C12.7222 8.30556 12.875 7.98148 12.875 7.55556C12.875 7.12963 12.7222 6.81018 12.4167 6.59722C12.1204 6.375 11.6806 6.26389 11.0972 6.26389H8.77778V8.86111ZM11.4444 13.0139C12.713 13.0139 13.3472 12.5648 13.3472 11.6667C13.3472 10.7593 12.713 10.3056 11.4444 10.3056H8.77778V13.0139H11.4444ZM23.3881 14.5H16.3881V4.77778H23.2075V6.36111H18.2353V8.79167H22.6381V10.3333H18.2353V12.9167H23.3881V14.5ZM27.5971 14.6528C26.8842 14.6528 26.1897 14.5463 25.5138 14.3333C24.8471 14.1111 24.3147 13.8287 23.9166 13.4861L24.5554 12.0139C24.9443 12.3287 25.4119 12.5833 25.9582 12.7778C26.5045 12.9722 27.0554 13.0694 27.611 13.0694C28.2684 13.0694 28.7545 12.9583 29.0693 12.7361C29.3934 12.5139 29.5554 12.2222 29.5554 11.8611C29.5554 11.5833 29.4629 11.3611 29.2777 11.1944C29.0925 11.0278 28.861 10.8981 28.5832 10.8056C28.3147 10.7037 27.9258 10.588 27.4166 10.4583C26.7221 10.2917 26.1527 10.1204 25.7082 9.94444C25.273 9.75926 24.898 9.47685 24.5832 9.09722C24.2684 8.71759 24.111 8.20833 24.111 7.56944C24.111 7.02315 24.2499 6.52778 24.5277 6.08333C24.8147 5.63889 25.2406 5.28704 25.8054 5.02778C26.3703 4.75926 27.0601 4.625 27.8749 4.625C28.4582 4.625 29.023 4.7037 29.5693 4.86111C30.1249 5.00926 30.6064 5.22222 31.0138 5.5L30.4304 6.98611C30.023 6.72685 29.5971 6.53241 29.1527 6.40278C28.7175 6.27315 28.2916 6.20833 27.8749 6.20833C27.2267 6.20833 26.7453 6.3287 26.4304 6.56944C26.1156 6.80093 25.9582 7.10185 25.9582 7.47222C25.9582 7.74074 26.0508 7.96296 26.236 8.13889C26.4212 8.30556 26.6573 8.43981 26.9443 8.54167C27.2314 8.63426 27.6203 8.74074 28.111 8.86111C28.824 9.03704 29.3934 9.21296 29.8193 9.38889C30.2545 9.56481 30.6295 9.84259 30.9443 10.2222C31.2592 10.5926 31.4166 11.0926 31.4166 11.7222C31.4166 12.2593 31.273 12.75 30.986 13.1944C30.699 13.6389 30.2684 13.9954 29.6943 14.2639C29.1203 14.5231 28.4212 14.6528 27.5971 14.6528ZM31.3511 6.38889V4.77778H39.2539V6.38889H36.24V14.5H34.3789V6.38889H31.3511Z" fill="white"/>
<defs>
<linearGradient id="paint0_linear_400_5695" x1="48.673" y1="1.54602e-08" x2="-0.646403" y2="23.2645" gradientUnits="userSpaceOnUse">
<stop stop-color="#FFA602"/>
<stop offset="1" stop-color="#FF5C33"/>
</linearGradient>
</defs>
</svg>
