<svg width="42" height="20" viewBox="0 0 42 20" fill="none" xmlns="http://www.w3.org/2000/svg">
<rect width="42" height="20" rx="4" fill="url(#paint0_linear_400_4001)"/>
<path d="M15 9.51389V13.4028C14.5185 13.8009 13.9537 14.1111 13.3056 14.3333C12.6667 14.5463 12.0139 14.6528 11.3472 14.6528C10.4028 14.6528 9.5463 14.4398 8.77778 14.0139C8.01852 13.5787 7.4213 12.9815 6.98611 12.2222C6.56019 11.4537 6.34722 10.5926 6.34722 9.63889C6.34722 8.67593 6.56481 7.81481 7 7.05556C7.43519 6.2963 8.03241 5.7037 8.79167 5.27778C9.56019 4.84259 10.4259 4.625 11.3889 4.625C12.1759 4.625 12.8889 4.76389 13.5278 5.04167C14.1667 5.31019 14.7083 5.71296 15.1528 6.25L13.9583 7.41667C13.2824 6.67593 12.4537 6.30556 11.4722 6.30556C10.8426 6.30556 10.2778 6.44907 9.77778 6.73611C9.28704 7.01389 8.90278 7.40741 8.625 7.91667C8.35648 8.41667 8.22222 8.99074 8.22222 9.63889C8.22222 10.2778 8.35648 10.8519 8.625 11.3611C8.90278 11.8611 9.28704 12.2546 9.77778 12.5417C10.2685 12.8287 10.8287 12.9722 11.4583 12.9722C12.162 12.9722 12.7731 12.8009 13.2917 12.4583V9.51389H15ZM18.4878 4.77778V14.5H16.6267V4.77778H18.4878ZM22.1403 9.23611H26.5292V10.8194H22.1403V14.5H20.2792V4.77778H27.0986V6.36111H22.1403V9.23611ZM27.4693 6.38889V4.77778H35.3721V6.38889H32.3582V14.5H30.4971V6.38889H27.4693Z" fill="white"/>
<defs>
<linearGradient id="paint0_linear_400_4001" x1="44.4406" y1="1.54602e-08" x2="-1.99621" y2="20" gradientUnits="userSpaceOnUse">
<stop stop-color="#414AFF"/>
<stop offset="1" stop-color="#B969FF"/>
</linearGradient>
</defs>
</svg>
