<svg width="32" height="32" viewBox="0 0 32 32" fill="none" xmlns="http://www.w3.org/2000/svg">
<rect width="32" height="32" rx="8" fill="#005BF1"/>
<path fill-rule="evenodd" clip-rule="evenodd" d="M9.76039 9.60611C9.6828 9.60049 9.5757 9.6 9.37613 9.6H8.8C8.35817 9.6 8 9.24183 8 8.8C8 8.35818 8.35817 8 8.8 8H9.37613C9.38344 8 9.39075 8 9.39805 8C9.56711 7.99998 9.73345 7.99996 9.87607 8.0103C10.0348 8.02181 10.217 8.0487 10.4066 8.1291C10.6746 8.2427 10.9097 8.42729 11.083 8.66588C11.205 8.83387 11.2716 9.00662 11.3174 9.1594C11.3588 9.29765 11.3945 9.46089 11.4303 9.62493L11.5996 10.4L21.7735 10.4C22.0419 10.4 22.2929 10.4 22.5 10.4181C22.7195 10.4373 22.9864 10.4827 23.2397 10.637C23.5819 10.8454 23.8361 11.1745 23.9475 11.5624C24.0305 11.8512 24.0003 12.1225 23.9578 12.3381C23.9176 12.5417 23.8471 12.7815 23.7724 13.0354L22.636 16.9004C22.6293 16.9231 22.6225 16.9465 22.6156 16.9704C22.5421 17.2246 22.4498 17.5437 22.2467 17.7964C22.0723 18.0132 21.8443 18.181 21.587 18.2838C21.2897 18.4027 20.9596 18.4013 20.6915 18.4002C20.6662 18.4001 20.6415 18.4 20.6174 18.4H13.347L13.4408 18.8297C13.4819 19.0176 13.5039 19.116 13.5247 19.1857C13.5254 19.188 13.526 19.1901 13.5266 19.1921C13.5326 19.1927 13.5395 19.1933 13.5475 19.1939C13.6254 19.1995 13.7329 19.2 13.9323 19.2H20.2161C21.5441 19.2 22.647 20.2602 22.647 21.6C22.647 22.9398 21.5441 24 20.2161 24C18.888 24 17.7852 22.9398 17.7852 21.6C17.7852 21.3186 17.8339 21.0495 17.923 20.8H15.1702C15.2594 21.0495 15.308 21.3186 15.308 21.6C15.308 22.9398 14.2052 24 12.8772 24C11.5491 24 10.4463 22.9398 10.4463 21.6C10.4463 20.5992 11.0616 19.7545 11.9265 19.391C11.9115 19.3259 11.8969 19.2592 11.8823 19.1925L11.8777 19.1711L9.87067 9.98243C9.82887 9.79105 9.80611 9.68996 9.78477 9.61873C9.78359 9.6148 9.78248 9.6112 9.78144 9.60789C9.7755 9.60731 9.76851 9.6067 9.76039 9.60611ZM20.2161 20.8C19.7427 20.8 19.3852 21.1725 19.3852 21.6C19.3852 22.0275 19.7427 22.4 20.2161 22.4C20.6894 22.4 21.047 22.0275 21.047 21.6C21.047 21.1725 20.6894 20.8 20.2161 20.8ZM12.9975 16.8H20.6174C20.8032 16.8 20.9022 16.7996 20.9741 16.7946C20.9814 16.794 20.9878 16.7935 20.9932 16.793C20.9944 16.7899 20.9957 16.7865 20.9971 16.7828C21.0214 16.7178 21.049 16.6257 21.1009 16.4491L22.23 12.6091C22.3157 12.3175 22.364 12.1503 22.388 12.0285C22.3889 12.0237 22.3898 12.0193 22.3906 12.015C22.3817 12.014 22.3717 12.013 22.3605 12.012C22.2318 12.0007 22.0525 12 21.7436 12H11.9491L12.9975 16.8ZM12.8772 20.8C12.4038 20.8 12.0463 21.1725 12.0463 21.6C12.0463 22.0275 12.4038 22.4 12.8772 22.4C13.3505 22.4 13.708 22.0275 13.708 21.6C13.708 21.1725 13.3505 20.8 12.8772 20.8Z" fill="white"/>
</svg>
