<svg width="32" height="32" viewBox="0 0 32 32" fill="none" xmlns="http://www.w3.org/2000/svg">
<rect width="32" height="32" rx="8" fill="#EDEDED"/>
<path d="M16 12.1295C14.3959 8.36434 8.78158 8.76536 8.78158 13.5777C8.78158 18.39 16 22.4004 16 22.4004C16 22.4004 23.2185 18.39 23.2185 13.5777C23.2185 8.76536 17.6041 8.36434 16 12.1295Z" fill="#FF3838"/>
<path fill-rule="evenodd" clip-rule="evenodd" d="M10.3343 11.339C9.92998 11.8197 9.63158 12.5447 9.63158 13.5777C9.63158 15.5871 11.1713 17.5724 12.9555 19.1584C13.8204 19.9272 14.6892 20.5551 15.3436 20.9914C15.6016 21.1634 15.825 21.3047 16 21.4124C16.1751 21.3047 16.3984 21.1634 16.6564 20.9914C17.3109 20.5551 18.1797 19.9272 19.0445 19.1584C20.8288 17.5724 22.3685 15.5871 22.3685 13.5777C22.3685 12.5447 22.0701 11.8197 21.6657 11.339C21.2589 10.8554 20.7014 10.5666 20.0896 10.4784C18.8578 10.3009 17.4294 10.9431 16.782 12.4627C16.6485 12.7761 16.3407 12.9796 16 12.9796C15.6593 12.9796 15.3516 12.7761 15.218 12.4627C14.5706 10.9431 13.1423 10.3009 11.9105 10.4784C11.2986 10.5666 10.7412 10.8554 10.3343 11.339ZM16 22.4004C15.5872 23.1434 15.587 23.1433 15.5868 23.1432L15.5844 23.1419L15.579 23.1389L15.5604 23.1284C15.5447 23.1195 15.5223 23.1067 15.4937 23.0902C15.4365 23.0571 15.3543 23.009 15.2508 22.9465C15.0439 22.8217 14.751 22.6394 14.4006 22.4059C13.7016 21.9398 12.7658 21.2643 11.8261 20.429C10.0011 18.8067 7.93158 16.3807 7.93158 13.5777C7.93158 12.2046 8.33497 11.0749 9.03342 10.2446C9.72943 9.41721 10.6758 8.93875 11.668 8.79578C13.2152 8.57283 14.8876 9.16161 16 10.5051C17.1124 9.16161 18.7849 8.57283 20.332 8.79578C21.3242 8.93875 22.2706 9.41721 22.9666 10.2446C23.6651 11.0749 24.0685 12.2046 24.0685 13.5777C24.0685 16.3807 21.999 18.8067 20.174 20.429C19.2342 21.2643 18.2984 21.9398 17.5994 22.4059C17.2491 22.6394 16.9562 22.8217 16.7492 22.9465C16.6457 23.009 16.5636 23.0571 16.5063 23.0902C16.4777 23.1067 16.4553 23.1195 16.4396 23.1284L16.4211 23.1389L16.4156 23.1419L16.4139 23.1429C16.4137 23.143 16.4128 23.1434 16 22.4004ZM16 22.4004L16.4128 23.1435C16.1561 23.2861 15.8435 23.2858 15.5868 23.1432L16 22.4004Z" fill="#FF3838"/>
</svg>
