<svg width="18" height="16" viewBox="0 0 18 16" fill="none" xmlns="http://www.w3.org/2000/svg">
<path d="M9.00002 4.12951C7.39593 0.364339 1.78158 0.765364 1.78158 5.57768C1.78158 10.39 9.00002 14.4004 9.00002 14.4004C9.00002 14.4004 16.2185 10.39 16.2185 5.57768C16.2185 0.765364 10.6041 0.364339 9.00002 4.12951Z" fill="#FF3838"/>
<path fill-rule="evenodd" clip-rule="evenodd" d="M3.33435 3.33895C2.92998 3.81965 2.63158 4.54469 2.63158 5.57773C2.63158 7.58712 4.1713 9.5724 5.95552 11.1584C6.82037 11.9272 7.68918 12.5551 8.34365 12.9914C8.60161 13.1634 8.82498 13.3047 9.00002 13.4124C9.17507 13.3047 9.39844 13.1634 9.6564 12.9914C10.3109 12.5551 11.1797 11.9272 12.0445 11.1584C13.8288 9.5724 15.3685 7.58712 15.3685 5.57773C15.3685 4.54469 15.0701 3.81965 14.6657 3.33895C14.2589 2.85535 13.7014 2.56657 13.0896 2.4784C11.8578 2.3009 10.4294 2.94311 9.78201 4.46271C9.64848 4.77614 9.34071 4.97956 9.00002 4.97956C8.65934 4.97956 8.35157 4.77614 8.21804 4.46271C7.57063 2.94311 6.14228 2.3009 4.9105 2.4784C4.29862 2.56657 3.74116 2.85535 3.33435 3.33895ZM9.00002 14.4004C8.58722 15.1434 8.58701 15.1433 8.58676 15.1432L8.58441 15.1419L8.57899 15.1389L8.56045 15.1284C8.54472 15.1195 8.52233 15.1067 8.49371 15.0902C8.43649 15.0571 8.35435 15.009 8.25083 14.9465C8.04389 14.8217 7.75097 14.6394 7.40064 14.4059C6.70164 13.9398 5.76584 13.2643 4.82609 12.429C3.00108 10.8067 0.93158 8.38067 0.93158 5.57773C0.93158 4.20461 1.33497 3.0749 2.03342 2.24461C2.72943 1.41721 3.67581 0.938754 4.66803 0.795775C6.21518 0.572832 7.88761 1.16161 9.00003 2.50506C10.1124 1.16161 11.7849 0.572832 13.332 0.795775C14.3242 0.938754 15.2706 1.41721 15.9666 2.24461C16.6651 3.0749 17.0685 4.20461 17.0685 5.57773C17.0685 8.38067 14.999 10.8067 13.174 12.429C12.2342 13.2643 11.2984 13.9398 10.5994 14.4059C10.2491 14.6394 9.95616 14.8217 9.74922 14.9465C9.6457 15.009 9.56355 15.0571 9.50634 15.0902C9.47772 15.1067 9.45533 15.1195 9.4396 15.1284L9.42106 15.1389L9.41563 15.1419L9.4139 15.1429C9.41366 15.143 9.41283 15.1434 9.00002 14.4004ZM9.00002 14.4004L9.41283 15.1435C9.15611 15.2861 8.84349 15.2858 8.58676 15.1432L9.00002 14.4004Z" fill="#FF3838"/>
</svg>
