<svg width="18" height="16" viewBox="0 0 18 16" fill="none" xmlns="http://www.w3.org/2000/svg">
<path fill-rule="evenodd" clip-rule="evenodd" d="M3.33435 3.3389C2.92998 3.8196 2.63158 4.54464 2.63158 5.57768C2.63158 7.58706 4.1713 9.57235 5.95552 11.1584C6.82037 11.9271 7.68918 12.555 8.34365 12.9913C8.60161 13.1633 8.82498 13.3047 9.00002 13.4123C9.17507 13.3047 9.39844 13.1633 9.6564 12.9913C10.3109 12.555 11.1797 11.9271 12.0445 11.1584C13.8288 9.57235 15.3685 7.58706 15.3685 5.57768C15.3685 4.54464 15.0701 3.8196 14.6657 3.3389C14.2589 2.8553 13.7014 2.56651 13.0896 2.47834C11.8578 2.30084 10.4294 2.94306 9.78201 4.46266C9.64848 4.77609 9.34071 4.9795 9.00002 4.9795C8.65934 4.9795 8.35157 4.77609 8.21804 4.46266C7.57063 2.94306 6.14228 2.30084 4.9105 2.47834C4.29862 2.56651 3.74116 2.8553 3.33435 3.3389ZM9.00002 14.4004C8.58722 15.1434 8.58676 15.1432 8.58676 15.1432L8.58441 15.1418L8.57899 15.1388L8.56045 15.1284C8.54472 15.1194 8.52233 15.1067 8.49371 15.0901C8.43649 15.0571 8.35435 15.0089 8.25083 14.9465C8.04389 14.8217 7.75097 14.6394 7.40064 14.4058C6.70164 13.9398 5.76584 13.2643 4.82609 12.4289C3.00108 10.8067 0.93158 8.38061 0.93158 5.57768C0.93158 4.20456 1.33497 3.07485 2.03342 2.24455C2.72943 1.41716 3.67581 0.938701 4.66803 0.795722C6.21518 0.572779 7.88761 1.16156 9.00003 2.50501C10.1124 1.16156 11.7849 0.572779 13.332 0.795722C14.3242 0.938701 15.2706 1.41716 15.9666 2.24455C16.6651 3.07485 17.0685 4.20456 17.0685 5.57768C17.0685 8.38061 14.999 10.8067 13.174 12.4289C12.2342 13.2643 11.2984 13.9398 10.5994 14.4058C10.2491 14.6394 9.95616 14.8217 9.74922 14.9465C9.6457 15.0089 9.56356 15.0571 9.50634 15.0901C9.47772 15.1067 9.45533 15.1194 9.4396 15.1284L9.42106 15.1388L9.41563 15.1418L9.4139 15.1428C9.4139 15.1428 9.41283 15.1434 9.00002 14.4004ZM9.00002 14.4004L9.41283 15.1434C9.15611 15.286 8.84349 15.2858 8.58676 15.1432L9.00002 14.4004Z" fill="#777777"/>
</svg>
