<svg width="21" height="20" viewBox="0 0 21 20" fill="none" xmlns="http://www.w3.org/2000/svg">
<mask id="path-1-outside-1_514_1205" maskUnits="userSpaceOnUse" x="0.637695" y="-0.667969" width="19" height="21" fill="black">
<rect fill="white" x="0.637695" y="-0.667969" width="19" height="21"/>
<path d="M15.334 19.668H5.66602C4.59803 19.6667 3.57416 19.2419 2.81898 18.4867C2.0638 17.7315 1.63897 16.7076 1.6377 15.6396V4.36035C1.63897 3.29237 2.0638 2.26849 2.81898 1.51331C3.57416 0.758132 4.59803 0.333311 5.66602 0.332031L15.334 0.332031C16.402 0.333311 17.4258 0.758132 18.181 1.51331C18.9362 2.26849 19.361 3.29237 19.3623 4.36035V15.6396C19.361 16.7076 18.9362 17.7315 18.181 18.4867C17.4258 19.2419 16.402 19.6667 15.334 19.668ZM5.66602 1.94336C5.02499 1.94336 4.41022 2.19801 3.95694 2.65128C3.50367 3.10455 3.24902 3.71933 3.24902 4.36035V15.6396C3.24902 16.2807 3.50367 16.8954 3.95694 17.3487C4.41022 17.802 5.02499 18.0566 5.66602 18.0566H15.334C15.975 18.0566 16.5898 17.802 17.0431 17.3487C17.4963 16.8954 17.751 16.2807 17.751 15.6396V4.36035C17.751 3.71933 17.4963 3.10455 17.0431 2.65128C16.5898 2.19801 15.975 1.94336 15.334 1.94336H5.66602ZM13.7227 8.38867H7.27734C6.63632 8.38867 6.02155 8.13403 5.56827 7.68075C5.115 7.22748 4.86035 6.61271 4.86035 5.97168C4.86035 5.33065 5.115 4.71588 5.56827 4.26261C6.02155 3.80933 6.63632 3.55469 7.27734 3.55469H13.7227C14.3637 3.55469 14.9785 3.80933 15.4317 4.26261C15.885 4.71588 16.1396 5.33065 16.1396 5.97168C16.1396 6.61271 15.885 7.22748 15.4317 7.68075C14.9785 8.13403 14.3637 8.38867 13.7227 8.38867ZM7.27734 5.16602C7.06367 5.16602 6.85874 5.2509 6.70765 5.40199C6.55656 5.55308 6.47168 5.758 6.47168 5.97168C6.47168 6.18536 6.55656 6.39028 6.70765 6.54137C6.85874 6.69246 7.06367 6.77734 7.27734 6.77734H13.7227C13.9363 6.77734 14.1413 6.69246 14.2923 6.54137C14.4434 6.39028 14.5283 6.18536 14.5283 5.97168C14.5283 5.758 14.4434 5.55308 14.2923 5.40199C14.1413 5.2509 13.9363 5.16602 13.7227 5.16602H7.27734ZM5.66602 10.8057C5.50667 10.8057 5.3509 10.8529 5.21841 10.9414C5.08592 11.03 4.98266 11.1558 4.92168 11.303C4.8607 11.4502 4.84475 11.6122 4.87583 11.7685C4.90692 11.9248 4.98365 12.0683 5.09633 12.181C5.209 12.2937 5.35255 12.3704 5.50884 12.4015C5.66512 12.4326 5.82711 12.4166 5.97433 12.3557C6.12155 12.2947 6.24737 12.1914 6.3359 12.0589C6.42443 11.9264 6.47168 11.7707 6.47168 11.6113C6.47168 11.3977 6.3868 11.1927 6.23571 11.0416C6.08461 10.8905 5.87969 10.8057 5.66602 10.8057ZM8.88867 10.8057C8.72933 10.8057 8.57356 10.8529 8.44107 10.9414C8.30858 11.03 8.20531 11.1558 8.14434 11.303C8.08336 11.4502 8.0674 11.6122 8.09849 11.7685C8.12958 11.9248 8.20631 12.0683 8.31898 12.181C8.43166 12.2937 8.57521 12.3704 8.73149 12.4015C8.88778 12.4326 9.04977 12.4166 9.19699 12.3557C9.3442 12.2947 9.47003 12.1914 9.55856 12.0589C9.64708 11.9264 9.69434 11.7707 9.69434 11.6113C9.69434 11.3977 9.60945 11.1927 9.45836 11.0416C9.30727 10.8905 9.10235 10.8057 8.88867 10.8057ZM12.1113 10.8057C11.952 10.8057 11.7962 10.8529 11.6637 10.9414C11.5312 11.03 11.428 11.1558 11.367 11.303C11.306 11.4502 11.2901 11.6122 11.3211 11.7685C11.3522 11.9248 11.429 12.0683 11.5416 12.181C11.6543 12.2937 11.7979 12.3704 11.9542 12.4015C12.1104 12.4326 12.2724 12.4166 12.4196 12.3557C12.5669 12.2947 12.6927 12.1914 12.7812 12.0589C12.8697 11.9264 12.917 11.7707 12.917 11.6113C12.917 11.3977 12.8321 11.1927 12.681 11.0416C12.5299 10.8905 12.325 10.8057 12.1113 10.8057ZM5.66602 14.0283C5.50667 14.0283 5.3509 14.0756 5.21841 14.1641C5.08592 14.2526 4.98266 14.3785 4.92168 14.5257C4.8607 14.6729 4.84475 14.8349 4.87583 14.9912C4.90692 15.1474 4.98365 15.291 5.09633 15.4037C5.209 15.5163 5.35255 15.5931 5.50884 15.6242C5.66512 15.6553 5.82711 15.6393 5.97433 15.5783C6.12155 15.5173 6.24737 15.4141 6.3359 15.2816C6.42443 15.1491 6.47168 14.9933 6.47168 14.834C6.47168 14.6203 6.3868 14.4154 6.23571 14.2643C6.08461 14.1132 5.87969 14.0283 5.66602 14.0283ZM8.88867 14.0283C8.72933 14.0283 8.57356 14.0756 8.44107 14.1641C8.30858 14.2526 8.20531 14.3785 8.14434 14.5257C8.08336 14.6729 8.0674 14.8349 8.09849 14.9912C8.12958 15.1474 8.20631 15.291 8.31898 15.4037C8.43166 15.5163 8.57521 15.5931 8.73149 15.6242C8.88778 15.6553 9.04977 15.6393 9.19699 15.5783C9.3442 15.5173 9.47003 15.4141 9.55856 15.2816C9.64708 15.1491 9.69434 14.9933 9.69434 14.834C9.69434 14.6203 9.60945 14.4154 9.45836 14.2643C9.30727 14.1132 9.10235 14.0283 8.88867 14.0283ZM15.334 10.8057C15.1746 10.8057 15.0189 10.8529 14.8864 10.9414C14.7539 11.03 14.6506 11.1558 14.5896 11.303C14.5287 11.4502 14.5127 11.6122 14.5438 11.7685C14.5749 11.9248 14.6516 12.0683 14.7643 12.181C14.877 12.2937 15.0205 12.3704 15.1768 12.4015C15.3331 12.4326 15.4951 12.4166 15.6423 12.3557C15.7895 12.2947 15.9153 12.1914 16.0039 12.0589C16.0924 11.9264 16.1396 11.7707 16.1396 11.6113C16.1396 11.3977 16.0548 11.1927 15.9037 11.0416C15.7526 10.8905 15.5477 10.8057 15.334 10.8057ZM16.1396 14.834C16.1396 14.6203 16.0548 14.4154 15.9037 14.2643C15.7526 14.1132 15.5477 14.0283 15.334 14.0283H12.1113C11.8977 14.0283 11.6927 14.1132 11.5416 14.2643C11.3905 14.4154 11.3057 14.6203 11.3057 14.834C11.3057 15.0477 11.3905 15.2526 11.5416 15.4037C11.6927 15.5548 11.8977 15.6396 12.1113 15.6396H15.334C15.5477 15.6396 15.7526 15.5548 15.9037 15.4037C16.0548 15.2526 16.1396 15.0477 16.1396 14.834Z"/>
</mask>
<path d="M15.334 19.668H5.66602C4.59803 19.6667 3.57416 19.2419 2.81898 18.4867C2.0638 17.7315 1.63897 16.7076 1.6377 15.6396V4.36035C1.63897 3.29237 2.0638 2.26849 2.81898 1.51331C3.57416 0.758132 4.59803 0.333311 5.66602 0.332031L15.334 0.332031C16.402 0.333311 17.4258 0.758132 18.181 1.51331C18.9362 2.26849 19.361 3.29237 19.3623 4.36035V15.6396C19.361 16.7076 18.9362 17.7315 18.181 18.4867C17.4258 19.2419 16.402 19.6667 15.334 19.668ZM5.66602 1.94336C5.02499 1.94336 4.41022 2.19801 3.95694 2.65128C3.50367 3.10455 3.24902 3.71933 3.24902 4.36035V15.6396C3.24902 16.2807 3.50367 16.8954 3.95694 17.3487C4.41022 17.802 5.02499 18.0566 5.66602 18.0566H15.334C15.975 18.0566 16.5898 17.802 17.0431 17.3487C17.4963 16.8954 17.751 16.2807 17.751 15.6396V4.36035C17.751 3.71933 17.4963 3.10455 17.0431 2.65128C16.5898 2.19801 15.975 1.94336 15.334 1.94336H5.66602ZM13.7227 8.38867H7.27734C6.63632 8.38867 6.02155 8.13403 5.56827 7.68075C5.115 7.22748 4.86035 6.61271 4.86035 5.97168C4.86035 5.33065 5.115 4.71588 5.56827 4.26261C6.02155 3.80933 6.63632 3.55469 7.27734 3.55469H13.7227C14.3637 3.55469 14.9785 3.80933 15.4317 4.26261C15.885 4.71588 16.1396 5.33065 16.1396 5.97168C16.1396 6.61271 15.885 7.22748 15.4317 7.68075C14.9785 8.13403 14.3637 8.38867 13.7227 8.38867ZM7.27734 5.16602C7.06367 5.16602 6.85874 5.2509 6.70765 5.40199C6.55656 5.55308 6.47168 5.758 6.47168 5.97168C6.47168 6.18536 6.55656 6.39028 6.70765 6.54137C6.85874 6.69246 7.06367 6.77734 7.27734 6.77734H13.7227C13.9363 6.77734 14.1413 6.69246 14.2923 6.54137C14.4434 6.39028 14.5283 6.18536 14.5283 5.97168C14.5283 5.758 14.4434 5.55308 14.2923 5.40199C14.1413 5.2509 13.9363 5.16602 13.7227 5.16602H7.27734ZM5.66602 10.8057C5.50667 10.8057 5.3509 10.8529 5.21841 10.9414C5.08592 11.03 4.98266 11.1558 4.92168 11.303C4.8607 11.4502 4.84475 11.6122 4.87583 11.7685C4.90692 11.9248 4.98365 12.0683 5.09633 12.181C5.209 12.2937 5.35255 12.3704 5.50884 12.4015C5.66512 12.4326 5.82711 12.4166 5.97433 12.3557C6.12155 12.2947 6.24737 12.1914 6.3359 12.0589C6.42443 11.9264 6.47168 11.7707 6.47168 11.6113C6.47168 11.3977 6.3868 11.1927 6.23571 11.0416C6.08461 10.8905 5.87969 10.8057 5.66602 10.8057ZM8.88867 10.8057C8.72933 10.8057 8.57356 10.8529 8.44107 10.9414C8.30858 11.03 8.20531 11.1558 8.14434 11.303C8.08336 11.4502 8.0674 11.6122 8.09849 11.7685C8.12958 11.9248 8.20631 12.0683 8.31898 12.181C8.43166 12.2937 8.57521 12.3704 8.73149 12.4015C8.88778 12.4326 9.04977 12.4166 9.19699 12.3557C9.3442 12.2947 9.47003 12.1914 9.55856 12.0589C9.64708 11.9264 9.69434 11.7707 9.69434 11.6113C9.69434 11.3977 9.60945 11.1927 9.45836 11.0416C9.30727 10.8905 9.10235 10.8057 8.88867 10.8057ZM12.1113 10.8057C11.952 10.8057 11.7962 10.8529 11.6637 10.9414C11.5312 11.03 11.428 11.1558 11.367 11.303C11.306 11.4502 11.2901 11.6122 11.3211 11.7685C11.3522 11.9248 11.429 12.0683 11.5416 12.181C11.6543 12.2937 11.7979 12.3704 11.9542 12.4015C12.1104 12.4326 12.2724 12.4166 12.4196 12.3557C12.5669 12.2947 12.6927 12.1914 12.7812 12.0589C12.8697 11.9264 12.917 11.7707 12.917 11.6113C12.917 11.3977 12.8321 11.1927 12.681 11.0416C12.5299 10.8905 12.325 10.8057 12.1113 10.8057ZM5.66602 14.0283C5.50667 14.0283 5.3509 14.0756 5.21841 14.1641C5.08592 14.2526 4.98266 14.3785 4.92168 14.5257C4.8607 14.6729 4.84475 14.8349 4.87583 14.9912C4.90692 15.1474 4.98365 15.291 5.09633 15.4037C5.209 15.5163 5.35255 15.5931 5.50884 15.6242C5.66512 15.6553 5.82711 15.6393 5.97433 15.5783C6.12155 15.5173 6.24737 15.4141 6.3359 15.2816C6.42443 15.1491 6.47168 14.9933 6.47168 14.834C6.47168 14.6203 6.3868 14.4154 6.23571 14.2643C6.08461 14.1132 5.87969 14.0283 5.66602 14.0283ZM8.88867 14.0283C8.72933 14.0283 8.57356 14.0756 8.44107 14.1641C8.30858 14.2526 8.20531 14.3785 8.14434 14.5257C8.08336 14.6729 8.0674 14.8349 8.09849 14.9912C8.12958 15.1474 8.20631 15.291 8.31898 15.4037C8.43166 15.5163 8.57521 15.5931 8.73149 15.6242C8.88778 15.6553 9.04977 15.6393 9.19699 15.5783C9.3442 15.5173 9.47003 15.4141 9.55856 15.2816C9.64708 15.1491 9.69434 14.9933 9.69434 14.834C9.69434 14.6203 9.60945 14.4154 9.45836 14.2643C9.30727 14.1132 9.10235 14.0283 8.88867 14.0283ZM15.334 10.8057C15.1746 10.8057 15.0189 10.8529 14.8864 10.9414C14.7539 11.03 14.6506 11.1558 14.5896 11.303C14.5287 11.4502 14.5127 11.6122 14.5438 11.7685C14.5749 11.9248 14.6516 12.0683 14.7643 12.181C14.877 12.2937 15.0205 12.3704 15.1768 12.4015C15.3331 12.4326 15.4951 12.4166 15.6423 12.3557C15.7895 12.2947 15.9153 12.1914 16.0039 12.0589C16.0924 11.9264 16.1396 11.7707 16.1396 11.6113C16.1396 11.3977 16.0548 11.1927 15.9037 11.0416C15.7526 10.8905 15.5477 10.8057 15.334 10.8057ZM16.1396 14.834C16.1396 14.6203 16.0548 14.4154 15.9037 14.2643C15.7526 14.1132 15.5477 14.0283 15.334 14.0283H12.1113C11.8977 14.0283 11.6927 14.1132 11.5416 14.2643C11.3905 14.4154 11.3057 14.6203 11.3057 14.834C11.3057 15.0477 11.3905 15.2526 11.5416 15.4037C11.6927 15.5548 11.8977 15.6396 12.1113 15.6396H15.334C15.5477 15.6396 15.7526 15.5548 15.9037 15.4037C16.0548 15.2526 16.1396 15.0477 16.1396 14.834Z" fill="#555555"/>
<path d="M15.334 19.668H5.66602C4.59803 19.6667 3.57416 19.2419 2.81898 18.4867C2.0638 17.7315 1.63897 16.7076 1.6377 15.6396V4.36035C1.63897 3.29237 2.0638 2.26849 2.81898 1.51331C3.57416 0.758132 4.59803 0.333311 5.66602 0.332031L15.334 0.332031C16.402 0.333311 17.4258 0.758132 18.181 1.51331C18.9362 2.26849 19.361 3.29237 19.3623 4.36035V15.6396C19.361 16.7076 18.9362 17.7315 18.181 18.4867C17.4258 19.2419 16.402 19.6667 15.334 19.668ZM5.66602 1.94336C5.02499 1.94336 4.41022 2.19801 3.95694 2.65128C3.50367 3.10455 3.24902 3.71933 3.24902 4.36035V15.6396C3.24902 16.2807 3.50367 16.8954 3.95694 17.3487C4.41022 17.802 5.02499 18.0566 5.66602 18.0566H15.334C15.975 18.0566 16.5898 17.802 17.0431 17.3487C17.4963 16.8954 17.751 16.2807 17.751 15.6396V4.36035C17.751 3.71933 17.4963 3.10455 17.0431 2.65128C16.5898 2.19801 15.975 1.94336 15.334 1.94336H5.66602ZM13.7227 8.38867H7.27734C6.63632 8.38867 6.02155 8.13403 5.56827 7.68075C5.115 7.22748 4.86035 6.61271 4.86035 5.97168C4.86035 5.33065 5.115 4.71588 5.56827 4.26261C6.02155 3.80933 6.63632 3.55469 7.27734 3.55469H13.7227C14.3637 3.55469 14.9785 3.80933 15.4317 4.26261C15.885 4.71588 16.1396 5.33065 16.1396 5.97168C16.1396 6.61271 15.885 7.22748 15.4317 7.68075C14.9785 8.13403 14.3637 8.38867 13.7227 8.38867ZM7.27734 5.16602C7.06367 5.16602 6.85874 5.2509 6.70765 5.40199C6.55656 5.55308 6.47168 5.758 6.47168 5.97168C6.47168 6.18536 6.55656 6.39028 6.70765 6.54137C6.85874 6.69246 7.06367 6.77734 7.27734 6.77734H13.7227C13.9363 6.77734 14.1413 6.69246 14.2923 6.54137C14.4434 6.39028 14.5283 6.18536 14.5283 5.97168C14.5283 5.758 14.4434 5.55308 14.2923 5.40199C14.1413 5.2509 13.9363 5.16602 13.7227 5.16602H7.27734ZM5.66602 10.8057C5.50667 10.8057 5.3509 10.8529 5.21841 10.9414C5.08592 11.03 4.98266 11.1558 4.92168 11.303C4.8607 11.4502 4.84475 11.6122 4.87583 11.7685C4.90692 11.9248 4.98365 12.0683 5.09633 12.181C5.209 12.2937 5.35255 12.3704 5.50884 12.4015C5.66512 12.4326 5.82711 12.4166 5.97433 12.3557C6.12155 12.2947 6.24737 12.1914 6.3359 12.0589C6.42443 11.9264 6.47168 11.7707 6.47168 11.6113C6.47168 11.3977 6.3868 11.1927 6.23571 11.0416C6.08461 10.8905 5.87969 10.8057 5.66602 10.8057ZM8.88867 10.8057C8.72933 10.8057 8.57356 10.8529 8.44107 10.9414C8.30858 11.03 8.20531 11.1558 8.14434 11.303C8.08336 11.4502 8.0674 11.6122 8.09849 11.7685C8.12958 11.9248 8.20631 12.0683 8.31898 12.181C8.43166 12.2937 8.57521 12.3704 8.73149 12.4015C8.88778 12.4326 9.04977 12.4166 9.19699 12.3557C9.3442 12.2947 9.47003 12.1914 9.55856 12.0589C9.64708 11.9264 9.69434 11.7707 9.69434 11.6113C9.69434 11.3977 9.60945 11.1927 9.45836 11.0416C9.30727 10.8905 9.10235 10.8057 8.88867 10.8057ZM12.1113 10.8057C11.952 10.8057 11.7962 10.8529 11.6637 10.9414C11.5312 11.03 11.428 11.1558 11.367 11.303C11.306 11.4502 11.2901 11.6122 11.3211 11.7685C11.3522 11.9248 11.429 12.0683 11.5416 12.181C11.6543 12.2937 11.7979 12.3704 11.9542 12.4015C12.1104 12.4326 12.2724 12.4166 12.4196 12.3557C12.5669 12.2947 12.6927 12.1914 12.7812 12.0589C12.8697 11.9264 12.917 11.7707 12.917 11.6113C12.917 11.3977 12.8321 11.1927 12.681 11.0416C12.5299 10.8905 12.325 10.8057 12.1113 10.8057ZM5.66602 14.0283C5.50667 14.0283 5.3509 14.0756 5.21841 14.1641C5.08592 14.2526 4.98266 14.3785 4.92168 14.5257C4.8607 14.6729 4.84475 14.8349 4.87583 14.9912C4.90692 15.1474 4.98365 15.291 5.09633 15.4037C5.209 15.5163 5.35255 15.5931 5.50884 15.6242C5.66512 15.6553 5.82711 15.6393 5.97433 15.5783C6.12155 15.5173 6.24737 15.4141 6.3359 15.2816C6.42443 15.1491 6.47168 14.9933 6.47168 14.834C6.47168 14.6203 6.3868 14.4154 6.23571 14.2643C6.08461 14.1132 5.87969 14.0283 5.66602 14.0283ZM8.88867 14.0283C8.72933 14.0283 8.57356 14.0756 8.44107 14.1641C8.30858 14.2526 8.20531 14.3785 8.14434 14.5257C8.08336 14.6729 8.0674 14.8349 8.09849 14.9912C8.12958 15.1474 8.20631 15.291 8.31898 15.4037C8.43166 15.5163 8.57521 15.5931 8.73149 15.6242C8.88778 15.6553 9.04977 15.6393 9.19699 15.5783C9.3442 15.5173 9.47003 15.4141 9.55856 15.2816C9.64708 15.1491 9.69434 14.9933 9.69434 14.834C9.69434 14.6203 9.60945 14.4154 9.45836 14.2643C9.30727 14.1132 9.10235 14.0283 8.88867 14.0283ZM15.334 10.8057C15.1746 10.8057 15.0189 10.8529 14.8864 10.9414C14.7539 11.03 14.6506 11.1558 14.5896 11.303C14.5287 11.4502 14.5127 11.6122 14.5438 11.7685C14.5749 11.9248 14.6516 12.0683 14.7643 12.181C14.877 12.2937 15.0205 12.3704 15.1768 12.4015C15.3331 12.4326 15.4951 12.4166 15.6423 12.3557C15.7895 12.2947 15.9153 12.1914 16.0039 12.0589C16.0924 11.9264 16.1396 11.7707 16.1396 11.6113C16.1396 11.3977 16.0548 11.1927 15.9037 11.0416C15.7526 10.8905 15.5477 10.8057 15.334 10.8057ZM16.1396 14.834C16.1396 14.6203 16.0548 14.4154 15.9037 14.2643C15.7526 14.1132 15.5477 14.0283 15.334 14.0283H12.1113C11.8977 14.0283 11.6927 14.1132 11.5416 14.2643C11.3905 14.4154 11.3057 14.6203 11.3057 14.834C11.3057 15.0477 11.3905 15.2526 11.5416 15.4037C11.6927 15.5548 11.8977 15.6396 12.1113 15.6396H15.334C15.5477 15.6396 15.7526 15.5548 15.9037 15.4037C16.0548 15.2526 16.1396 15.0477 16.1396 14.834Z" stroke="#555555" stroke-width="0.4" mask="url(#path-1-outside-1_514_1205)"/>
</svg>
