<svg width="17" height="17" viewBox="0 0 17 17" fill="none" xmlns="http://www.w3.org/2000/svg">
<path fill-rule="evenodd" clip-rule="evenodd" d="M8.36805 1.73196C4.63016 1.73196 1.6 4.76212 1.6 8.50001C1.6 12.2379 4.63016 15.2681 8.36805 15.2681C12.1059 15.2681 15.1361 12.2379 15.1361 8.50001C15.1361 4.76212 12.1059 1.73196 8.36805 1.73196ZM0 8.50001C0 3.87846 3.7465 0.131958 8.36805 0.131958C12.9896 0.131958 16.7361 3.87846 16.7361 8.50001C16.7361 13.1216 12.9896 16.8681 8.36805 16.8681C3.7465 16.8681 0 13.1216 0 8.50001Z" fill="#888888"/>
<path fill-rule="evenodd" clip-rule="evenodd" d="M8.57543 5.25625C8.36906 5.2152 8.15514 5.23626 7.96074 5.31679C7.76634 5.39731 7.60018 5.53367 7.48328 5.70863C7.36638 5.88359 7.30398 6.08928 7.30398 6.2997C7.30398 6.74153 6.94581 7.0997 6.50398 7.0997C6.06215 7.0997 5.70398 6.74153 5.70398 6.2997C5.70398 5.77283 5.86021 5.25779 6.15293 4.81972C6.44564 4.38164 6.86168 4.04021 7.34845 3.83858C7.83521 3.63696 8.37083 3.5842 8.88758 3.68699C9.40432 3.78978 9.87898 4.04349 10.2515 4.41604C10.6241 4.78859 10.8778 5.26326 10.9806 5.78C11.0834 6.29675 11.0306 6.83237 10.829 7.31913C10.808 7.36978 10.7819 7.41814 10.751 7.46344C10.6007 7.68409 10.4677 7.86795 10.3098 8.03152C10.1457 8.20155 9.97873 8.32481 9.79245 8.45273C9.73813 8.49003 9.68485 8.52587 9.63278 8.56089C9.48668 8.65915 9.3501 8.751 9.22688 8.8508C9.20341 8.86981 9.18354 8.88671 9.16686 8.90148V9.46121C9.16686 9.90304 8.80869 10.2612 8.36686 10.2612C7.92503 10.2612 7.56686 9.90306 7.56686 9.46123V8.70582C7.56686 8.36059 7.74173 8.1041 7.84396 7.97552C7.96046 7.82899 8.10051 7.70411 8.21989 7.60743C8.40475 7.45771 8.62874 7.30737 8.78297 7.20385C8.82286 7.17708 8.85808 7.15344 8.88675 7.13375C9.04671 7.02391 9.10782 6.97294 9.15871 6.92024C9.20839 6.86877 9.26712 6.79595 9.37625 6.63889C9.43534 6.46323 9.44765 6.27474 9.41133 6.09215C9.37028 5.88577 9.26895 5.6962 9.12016 5.54741C8.97138 5.39862 8.78181 5.2973 8.57543 5.25625Z" fill="#888888"/>
<path d="M8.36771 11.3962C8.1723 11.3962 7.98128 11.4542 7.8188 11.5628C7.65632 11.6713 7.52969 11.8256 7.45491 12.0062C7.38013 12.1867 7.36056 12.3853 7.39868 12.577C7.43681 12.7687 7.53091 12.9447 7.66908 13.0829C7.80726 13.2211 7.9833 13.3152 8.17496 13.3533C8.36662 13.3914 8.56527 13.3718 8.74581 13.2971C8.92634 13.2223 9.08065 13.0956 9.18921 12.9332C9.29778 12.7707 9.35572 12.5797 9.35572 12.3843C9.35231 12.1233 9.24712 11.8739 9.06257 11.6894C8.87802 11.5048 8.62869 11.3997 8.36771 11.3962Z" fill="#888888"/>
</svg>
