<svg width="20" height="20" viewBox="0 0 20 20" fill="none" xmlns="http://www.w3.org/2000/svg">
<path fill-rule="evenodd" clip-rule="evenodd" d="M2.29295 2.29289C2.68348 1.90237 3.31664 1.90237 3.70717 2.29289L10.0001 8.58579L16.293 2.29289C16.6835 1.90237 17.3166 1.90237 17.7072 2.29289C18.0977 2.68342 18.0977 3.31658 17.7072 3.70711L11.4143 10L17.7071 16.2928C18.0976 16.6833 18.0976 17.3165 17.7071 17.707C17.3166 18.0976 16.6834 18.0976 16.2929 17.707L10.0001 11.4142L3.70717 17.7071C3.31664 18.0976 2.68348 18.0976 2.29295 17.7071C1.90243 17.3166 1.90243 16.6834 2.29295 16.2929L8.58585 10L2.29295 3.70711C1.90243 3.31658 1.90243 2.68342 2.29295 2.29289Z" fill="#888888"/>
</svg>
