<svg width="32" height="28" viewBox="0 0 32 28" fill="none" xmlns="http://www.w3.org/2000/svg">
<path d="M30.4918 0L26.9922 0.079536C26.3412 0.0942649 25.7756 0.536132 25.6047 1.16653L24.8506 3.94734L1.467 4.02688C0.656909 4.02688 0 4.68968 0 5.49977V17.9722C0 18.7852 0.659855 19.4451 1.47289 19.4451H22.5735C23.2393 19.4451 23.8196 19.0003 23.9963 18.3581L28.1617 3.00175L30.5595 2.94578C31.3726 2.9281 32.0177 2.25352 31.9971 1.44049C31.9794 0.627451 31.3019 -0.0206205 30.4918 0.00294578V0Z" fill="#A4C5FF"/>
<path d="M3.78827 21.3598C2.1622 21.3598 0.842493 22.6796 0.842493 24.3056C0.842493 25.9317 2.1622 27.2514 3.78827 27.2514C5.41434 27.2514 6.73405 25.9317 6.73405 24.3056C6.73405 22.6796 5.41434 21.3598 3.78827 21.3598Z" fill="#005BF1"/>
<path d="M20.5527 21.4276C18.9266 21.4276 17.6069 22.7473 17.6069 24.3734C17.6069 25.9994 18.9266 27.3192 20.5527 27.3192C22.1788 27.3192 23.4985 25.9994 23.4985 24.3734C23.4985 22.7473 22.1788 21.4276 20.5527 21.4276Z" fill="#005BF1"/>
</svg>
