<svg width="32" height="28" viewBox="0 0 32 28" fill="none" xmlns="http://www.w3.org/2000/svg">
<path d="M27.773 4.45267H4.23012C3.15834 4.45267 2.2895 5.32152 2.2895 6.39329V25.2513C2.2895 26.323 3.15834 27.1919 4.23012 27.1919H27.773C28.8448 27.1919 29.7136 26.323 29.7136 25.2513V6.39329C29.7136 5.32152 28.8448 4.45267 27.773 4.45267Z" fill="#005BF1"/>
<path d="M24.7079 27.1919V20.719C24.7079 18.4887 22.8825 16.6633 20.6522 16.6633C18.4219 16.6633 16.5965 18.4887 16.5965 20.719V27.1919H24.711H24.7079Z" fill="#A4C5FF"/>
<path d="M0 2.78928V8.97871C0 10.7355 1.436 12.1715 3.19284 12.1715C4.94967 12.1715 6.38567 10.7355 6.38567 8.97871V0.808167H1.98112C0.887764 0.808167 0 1.69593 0 2.78928Z" fill="#A4C5FF"/>
<path d="M6.40436 0.808167V8.97871C6.40436 10.7355 7.84036 12.1715 9.5972 12.1715C11.354 12.1715 12.79 10.7355 12.79 8.97871V0.808167H6.40436Z" fill="#E1ECFF"/>
<path d="M12.8087 0.808167V8.97871C12.8087 10.7355 14.2447 12.1715 16.0016 12.1715C17.7584 12.1715 19.1944 10.7355 19.1944 8.97871V0.808167H12.8087Z" fill="#A4C5FF"/>
<path d="M19.21 0.808167V8.97871C19.21 10.7355 20.646 12.1715 22.4028 12.1715C24.1596 12.1715 25.5956 10.7355 25.5956 8.97871V0.808167H19.21Z" fill="#E1ECFF"/>
<path d="M25.6143 0.808167V8.97871C25.6143 10.7355 27.0503 12.1715 28.8072 12.1715C30.564 12.1715 32 10.7355 32 8.97871V2.78928C32 1.69282 31.1122 0.808167 30.0189 0.808167H25.6143Z" fill="#A4C5FF"/>
</svg>
