<svg width="40" height="40" viewBox="0 0 40 40" fill="none" xmlns="http://www.w3.org/2000/svg">
<g clip-path="url(#clip0_585_3240)">
<path d="M19.221 25.9065C18.6964 25.9065 18.2708 25.4808 18.2708 24.9563V18.1832C18.2708 17.6587 18.6964 17.233 19.221 17.233C19.7455 17.233 20.1712 17.6587 20.1712 18.1832V24.9563C20.1712 25.4808 19.7455 25.9065 19.221 25.9065Z" fill="#162A4A"/>
<path d="M10.6311 25.9065C10.3498 25.9065 10.0685 25.7849 9.88609 25.5416C9.55922 25.1311 9.63524 24.5306 10.0457 24.2037L18.6356 17.4306C19.0461 17.1038 19.6466 17.1798 19.9735 17.5903C20.3004 18.0008 20.2244 18.6013 19.8139 18.9282L11.224 25.7013C11.0491 25.8381 10.8439 25.9065 10.6387 25.9065H10.6311Z" fill="#162A4A"/>
<path d="M27.8108 25.9065C27.6055 25.9065 27.4003 25.8381 27.2255 25.7013L18.6356 18.9282C18.2251 18.6013 18.1491 18.0084 18.4759 17.5903C18.8028 17.1798 19.3957 17.1038 19.8138 17.4306L28.4037 24.2037C28.8142 24.5306 28.8902 25.1235 28.5634 25.5416C28.3733 25.7773 28.0997 25.9065 27.8184 25.9065H27.8108Z" fill="#162A4A"/>
<path d="M30.1674 24.1961H8.28216C7.4593 24.1961 6.79224 24.8632 6.79224 25.686V38.5101C6.79224 39.3329 7.4593 40 8.28216 40H30.1674C30.9902 40 31.6573 39.3329 31.6573 38.5101V25.686C31.6573 24.8632 30.9902 24.1961 30.1674 24.1961Z" fill="#E9CD98"/>
<path d="M16.8491 24.1961H21.5926V39.3197C21.5926 39.6991 21.4177 40 21.1973 40H17.2444C17.024 40 16.8491 39.6991 16.8491 39.3197V24.1961Z" fill="#BEA981"/>
<path d="M13.1926 12.0714L22.3754 1.02622C22.6947 0.646135 23.1432 0.39528 23.6449 0.334466L26.1687 -7.28095e-06C26.678 -0.0684223 27.0809 0.418085 26.9364 0.904592L23.6069 12.1247L13.1926 12.0638V12.0714Z" fill="#005BF1"/>
<path d="M37.541 7.89056H33.4437C33.1624 7.89056 32.9116 8.0578 32.7976 8.31626L31.3304 11.6534C31.2772 11.6534 31.2316 11.6382 31.1784 11.6382H5.10467C3.4171 11.6382 1.90436 12.8697 1.75233 14.5496C1.58509 16.4424 3.07502 18.0312 4.93743 18.0312H32.083C33.3449 18.0312 34.4927 17.2862 35.002 16.1308L38.1871 8.89398C38.3924 8.42268 38.0503 7.89817 37.541 7.89817V7.89056Z" fill="#A4C5FF"/>
</g>
<defs>
<clipPath id="clip0_585_3240">
<rect width="36.5108" height="40" fill="white" transform="translate(1.74463)"/>
</clipPath>
</defs>
</svg>
