<?xml version="1.0" encoding="utf-8"?>
<!-- Generator: Adobe Illustrator 16.0.0, SVG Export Plug-In . SVG Version: 6.00 Build 0)  -->
<!DOCTYPE svg PUBLIC "-//W3C//DTD SVG 1.1//EN" "http://www.w3.org/Graphics/SVG/1.1/DTD/svg11.dtd">
<svg version="1.1" id="Layer_1" xmlns="http://www.w3.org/2000/svg" xmlns:xlink="http://www.w3.org/1999/xlink" x="0px" y="0px"
	 width="10px" height="10px" viewBox="0 0 10 10" enable-background="new 0 0 10 10" xml:space="preserve">
<g>
	<g>
		<path fill="#6A8CFF" d="M2.541,0.16L2.21,0.487C2.107,0.591,2.05,0.728,2.05,0.874s0.057,0.284,0.16,0.387l3.737,3.736L2.207,8.74
			c-0.104,0.102-0.16,0.24-0.16,0.385c0,0.148,0.056,0.284,0.16,0.389l0.328,0.327c0.213,0.212,0.561,0.212,0.773,0l4.471-4.455
			c0.103-0.103,0.175-0.24,0.175-0.388V4.997c0-0.146-0.072-0.284-0.175-0.387L3.32,0.16C3.217,0.057,3.076,0,2.929,0
			S2.643,0.057,2.541,0.16z"/>
	</g>
</g>
</svg>
