<svg width="15" height="15" viewBox="0 0 15 15" fill="none" xmlns="http://www.w3.org/2000/svg">
<g clip-path="url(#clip0_12_65)">
<path d="M15 11L8 11L8 9C8 8.44771 8.44772 8 9 8L14 8C14.5523 8 15 8.44772 15 9L15 11Z" fill="#BB905B"/>
<path d="M8 11H15V14C15 14.5523 14.5523 15 14 15H9C8.44772 15 8 14.5523 8 14V11Z" fill="#E4B37B"/>
<path d="M0 11H7V14C7 14.5523 6.55228 15 6 15H1C0.447715 15 0 14.5523 0 14V11Z" fill="#E4B37B"/>
<path d="M7 11L0 11L1.16564e-07 9C1.48752e-07 8.44771 0.447715 8 1 8L6 8C6.55228 8 7 8.44772 7 9L7 11Z" fill="#BB905B"/>
<path d="M11 3L4 3L4 1C4 0.447715 4.44772 9.4446e-08 5 1.66869e-07L10 8.2254e-07C10.5523 8.94964e-07 11 0.447716 11 1L11 3Z" fill="#BB905B"/>
<path d="M4 3H11V6C11 6.55228 10.5523 7 10 7H5C4.44772 7 4 6.55228 4 6V3Z" fill="#E4B37B"/>
</g>
<defs>
<clipPath id="clip0_12_65">
<rect width="15" height="15" fill="white"/>
</clipPath>
</defs>
</svg>
